<svg width="24" height="24" viewBox="0 0 24 24" fill="none" xmlns="http://www.w3.org/2000/svg">
<path d="M16.826 21.2164H10.9735M8.53491 12.9252H14.8752M8.53491 9.51125H14.8752M8.53491 6.09726H14.8752M19.7523 0.732422H18.2892V6.09726H22.6786V3.6587C22.6786 2.8826 22.3703 2.13829 21.8215 1.58951C21.2727 1.04073 20.5284 0.732422 19.7523 0.732422Z" stroke="#E33629" stroke-width="1.46314" stroke-linecap="round" stroke-linejoin="round"/>
<path d="M13.1682 16.8269H3.65784C2.88175 16.8269 2.13744 17.1352 1.58865 17.684C1.03987 18.2328 0.731567 18.9771 0.731567 19.7532V22.6795H10.9735V19.0216C10.9735 18.4396 11.2048 17.8813 11.6163 17.4698C12.0279 17.0582 12.5862 16.8269 13.1682 16.8269ZM13.1682 16.8269C13.7503 16.8269 14.3085 17.0582 14.7201 17.4698C15.1317 17.8813 15.3629 18.4396 15.3629 19.0216V19.7532C15.3629 20.1413 15.5171 20.5134 15.7915 20.7878C16.0659 21.0622 16.438 21.2164 16.8261 21.2164C17.2141 21.2164 17.5863 21.0622 17.8607 20.7878C18.1351 20.5134 18.2892 20.1413 18.2892 19.7532V0.732422H8.04726C7.27116 0.732422 6.52685 1.04073 5.97807 1.58951C5.42928 2.13829 5.12098 2.8826 5.12098 3.6587V16.8269" stroke="#E33629" stroke-width="1.46314" stroke-linecap="round" stroke-linejoin="round"/>
</svg>
