<svg width="367" height="274" viewBox="0 0 367 274" fill="none" xmlns="http://www.w3.org/2000/svg">
<path d="M176.773 246.63C244.742 246.63 299.845 191.527 299.845 123.315C299.845 55.1034 244.499 0 176.773 0C108.804 0 53.7004 55.1034 53.7004 123.315C53.7004 191.527 108.804 246.63 176.773 246.63Z" fill="#15BA5C" fill-opacity="0.11"/>
<g filter="url(#filter0_d_2649_6762)">
<path d="M307.754 178.25H270.417C268.651 178.25 267.138 177.114 266.633 175.601C262.975 164.753 254.902 162.104 235.351 154.409C234.215 153.905 234.089 152.391 235.224 151.761C240.901 148.986 239.892 146.589 239.892 129.939C239.639 129.686 239.387 129.308 239.261 129.056C238 127.163 237.117 124.893 236.864 122.622L235.603 121.992C231.819 122.875 232.071 118.838 231.062 111.018C230.683 107.738 231.188 107.107 232.576 106.603L233.837 104.963C226.395 88.3127 230.179 77.8432 237.495 74.0591C235.098 68.7612 234.972 66.8691 234.972 66.8691C234.972 66.8691 250.487 69.5181 255.785 68.3828C262.597 66.9953 272.94 68.6351 276.85 77.5909C283.283 80.1137 285.806 84.2763 286.437 88.565C287.32 95.6288 283.41 103.323 282.653 106.351C282.779 106.477 282.779 106.603 282.905 106.729C283.914 107.234 284.292 108.117 283.914 110.892C283.031 118.334 283.157 123.001 279.373 121.866L275.967 127.794C275.841 128.551 275.715 128.803 275.715 129.182C275.589 130.317 275.589 132.461 275.589 144.823C275.589 146.337 275.967 147.724 276.724 148.859C277.481 150.247 278.742 151.256 280.256 151.887H280.382C289.212 155.545 295.519 157.941 300.186 159.833C310.529 163.996 312.295 165.131 313.178 172.069C313.431 175.475 311.034 178.25 307.754 178.25Z" fill="white"/>
</g>
<path d="M282.397 106.222C282.776 104.33 281.893 102.059 281.136 100.419C281.01 100.167 280.884 99.9147 280.757 99.5363C277.856 93.6078 271.171 91.085 264.864 90.8327C248.718 89.9498 247.205 93.1032 242.159 88.4361C243.673 90.8328 243.925 94.4908 241.402 99.1579C239.762 102.438 236.483 103.825 233.582 104.834C226.266 88.1838 229.924 77.7143 237.24 73.9301C234.843 68.6323 234.717 66.7402 234.717 66.7402C234.717 66.7402 250.232 69.3891 255.53 68.2539C262.341 66.8664 272.685 68.5062 276.595 77.462C283.028 79.9848 285.551 84.1474 286.181 88.4361C287.191 95.4999 283.154 103.194 282.397 106.222Z" fill="url(#paint0_linear_2649_6762)"/>
<path opacity="0.1" d="M303.841 178.248C307.751 172.194 306.238 166.517 299.931 159.832C310.274 163.995 312.04 165.13 312.923 172.067C313.427 175.221 310.905 178.122 307.625 178.122H303.841V178.248Z" fill="#15BA5C"/>
<path d="M276.469 148.985V151.886H239.005V148.102C239.888 146.084 239.636 146.21 239.636 129.938C239.384 129.686 239.131 129.307 239.005 129.055V128.172C239.762 129.559 240.897 130.821 242.033 131.83L253.764 140.029C256.539 142.299 260.449 142.426 263.224 140.155L274.198 130.316C274.576 129.938 274.955 129.686 275.333 129.307C275.207 130.442 275.207 132.587 275.207 144.948C275.333 146.336 275.712 147.723 276.469 148.985Z" fill="url(#paint1_linear_2649_6762)"/>
<g filter="url(#filter1_d_2649_6762)">
<path d="M114.759 150.116C108.704 149.99 108.073 148.855 108.073 148.855V138.764C114.507 133.466 119.931 127.285 121.444 119.212C125.481 118.329 128.003 114.671 127.625 110.635C127.499 108.869 126.364 107.229 126.237 105.337C126.237 104.454 126.237 103.571 126.237 102.688C126.237 102.057 126.237 101.553 126.111 100.922C126.111 100.291 125.985 99.6607 125.985 99.03C125.607 96.0027 124.85 92.8492 122.832 89.1912C117.786 79.7308 107.821 73.4238 96.5949 73.4238C94.3244 73.4238 92.0539 73.6761 89.9095 74.1807C85.8731 75.0636 82.215 76.8296 78.9354 79.3524C78.3047 79.8569 77.674 80.3615 77.0433 80.866C76.9172 80.9922 76.7911 81.1183 76.5388 81.2444C73.0069 84.524 70.2318 88.6866 68.7182 93.3538C67.2045 98.0209 66.8261 102.814 67.4568 107.607C67.4568 107.734 67.4568 107.86 67.4568 107.986C67.4568 108.112 67.4568 108.238 67.4568 108.364C67.5829 109.247 67.8352 109.121 67.2045 109.878C67.0784 110.13 66.8261 110.382 66.7 110.761C65.9431 112.148 65.3124 114.041 66.1954 116.311C67.7091 120.6 70.7364 119.969 73.5115 122.366C73.3853 122.492 73.133 122.618 73.0069 122.618H72.8808L69.7273 123.627C50.8065 129.556 48.6621 149.612 68.0875 153.27C66.7 153.396 65.4386 154.153 64.5556 154.783C58.3748 159.577 54.4645 166.893 53.4554 174.083C53.077 176.227 54.8429 178.245 57.1134 178.245H87.1344C87.7651 178.245 88.3958 177.741 88.6481 177.11C91.4232 167.019 97.7301 163.487 110.849 158.189L118.417 155.162C119.678 154.657 121.066 154.153 122.579 153.522C123.967 153.017 123.841 150.999 122.327 150.621C120.814 150.242 119.3 150.116 117.786 149.99C116.525 150.116 115.516 150.116 114.759 150.116ZM76.2865 137.25C76.2865 135.989 77.1695 134.601 79.0616 133.087C79.8184 134.097 80.8275 135.232 81.9628 136.241C82.8457 136.998 83.7287 137.755 84.7378 138.511C85.3685 138.89 85.9992 139.394 86.6299 139.899C86.756 140.025 86.8822 140.151 87.0083 140.151C87.1345 140.277 87.3867 140.404 87.5129 140.53V146.71C87.3867 146.584 87.2606 146.458 87.1344 146.458C86.5038 145.954 85.9992 145.449 85.4946 145.071C84.6117 144.44 83.7287 143.935 82.8457 143.431C82.4673 143.179 82.215 143.052 81.9628 142.8C79.0616 140.908 76.4127 139.142 76.2865 137.25Z" fill="white"/>
</g>
<path d="M114.759 150.117C113.75 153.775 112.614 156.046 112.614 156.046L80.0706 150.874L81.9627 142.801C82.215 143.054 82.5934 143.18 82.8457 143.306C83.7286 143.81 84.7378 144.441 85.4946 145.072C85.9991 145.45 86.6298 145.829 87.1344 146.459C87.2605 146.585 87.3867 146.712 87.3867 146.712V140.531C87.1344 140.405 87.0083 140.278 86.8821 140.152C92.1799 142.801 98.7392 144.189 108.2 138.639C108.073 138.639 108.073 138.765 107.947 138.765V148.856C107.947 148.856 108.704 149.991 114.759 150.117Z" fill="url(#paint2_linear_2649_6762)"/>
<path d="M125.985 100.927C120.561 102.819 114.759 103.576 108.957 103.071C99.8747 102.314 91.045 98.6563 84.2335 92.6017C81.963 99.1609 76.2867 104.08 69.8537 106.981C68.9707 107.36 68.0877 107.738 67.2047 107.991C67.2047 107.864 67.2047 107.738 67.2047 107.738C66.574 102.945 66.9525 98.1518 68.4661 93.4846C69.9798 88.8175 72.7548 84.6549 76.2867 81.3753C76.4129 81.2492 76.539 81.123 76.7913 80.9969C77.422 80.4923 78.0527 79.9878 78.6834 79.4832C81.963 77.0866 85.7471 75.3206 89.6574 74.3115C91.9279 73.807 94.0723 73.5547 96.3428 73.5547C107.569 73.5547 117.534 79.8616 122.58 89.322C124.472 92.9801 125.355 96.1335 125.733 99.0347C125.985 99.6654 125.985 100.296 125.985 100.927Z" fill="url(#paint3_linear_2649_6762)"/>
<path d="M91.2971 165.38C88.9005 168.408 84.3595 168.534 80.5753 168.408C84.6118 164.497 82.3413 151.757 68.2137 153.271H68.0876C48.6622 149.613 50.8066 129.557 69.6012 123.628L72.7547 122.619C73.007 122.745 73.1331 122.871 73.2593 123.124C74.7729 127.034 76.7912 130.314 78.9355 132.963C71.241 139.396 81.9628 141.414 87.1345 146.333C91.6755 148.982 95.4597 160.082 91.2971 165.38Z" fill="url(#paint4_linear_2649_6762)"/>
<g filter="url(#filter2_d_2649_6762)">
<path d="M259.44 184.048C260.071 188.715 256.413 193.003 251.62 193.003H103.785C98.9918 193.003 95.3338 188.715 95.9645 184.048C97.352 174.335 99.4964 172.317 113.876 166.514L117.408 165.127C124.093 162.478 132.797 159.198 144.528 154.279C147.177 153.144 149.321 151.125 150.456 148.476C151.087 147.089 151.466 145.449 151.466 143.809V121.735C151.087 121.23 150.709 120.852 150.456 120.347C148.564 117.572 147.303 114.293 146.925 110.761L145.032 109.878C139.356 111.265 139.861 105.211 138.347 93.606C137.716 88.8127 138.473 87.8036 140.618 87.0468L142.384 84.6502C131.536 60.0531 136.96 44.6642 147.681 39.2402C144.402 31.4196 144.15 28.6445 144.15 28.6445C144.15 28.6445 166.981 32.4287 174.801 30.915C184.766 28.8968 200.155 31.2934 205.831 44.538C215.292 48.3222 218.95 54.2507 219.833 60.8099C221.22 71.1533 215.292 82.5058 214.157 86.9207C214.283 87.1729 214.283 87.2991 214.409 87.4252C215.923 88.1821 216.427 89.4434 215.923 93.606C214.535 104.58 214.913 111.392 209.237 109.878L204.192 118.708C203.939 119.717 203.939 120.095 203.813 120.852C203.561 122.492 203.687 125.771 203.687 143.809C203.687 145.954 204.318 148.098 205.453 149.738C206.714 151.63 208.48 153.27 210.625 154.153C210.751 154.153 210.751 154.153 210.877 154.279C223.869 159.703 233.204 163.235 240.015 165.884C255.53 171.938 257.927 173.83 259.44 184.048Z" fill="white"/>
</g>
<path d="M214.283 86.9207C214.787 84.1456 213.526 80.7399 212.517 78.3432C212.391 77.9648 212.139 77.5864 212.012 77.0818C207.598 68.2521 197.885 64.7202 188.551 64.2157C164.71 62.9543 162.566 67.4953 155.124 60.6838C157.394 64.2157 157.647 69.6396 154.115 76.4511C151.592 81.2444 146.799 83.3888 142.636 84.7763C131.788 60.1792 137.212 44.7903 147.934 39.3663C144.402 31.4196 144.15 28.6445 144.15 28.6445C144.15 28.6445 166.981 32.4287 174.802 30.915C184.766 28.8968 200.155 31.2934 205.832 44.538C215.292 48.3222 218.95 54.2507 219.833 60.8099C221.347 71.0272 215.418 82.3797 214.283 86.9207Z" fill="url(#paint5_linear_2649_6762)"/>
<path opacity="0.1" d="M246.069 192.877C251.872 184.047 249.601 175.722 240.267 165.883C255.53 171.937 258.053 173.83 259.44 183.921C260.071 188.588 256.413 192.877 251.62 192.877H246.069Z" fill="#15BA5C"/>
<path d="M205.579 149.74V154.028H150.583V148.478C151.213 147.091 151.592 145.451 151.592 143.811V121.737C151.213 121.232 150.835 120.854 150.583 120.349V119.088C151.718 121.106 153.231 122.998 155.124 124.512L172.405 136.621C176.441 140.027 182.243 140.153 186.406 136.873L202.552 122.368C203.056 121.863 203.687 121.358 204.192 120.854C203.939 122.494 204.065 125.773 204.065 143.811C203.939 145.955 204.57 147.974 205.579 149.74Z" fill="url(#paint6_linear_2649_6762)"/>
<path d="M220.46 216.034C219.677 219.361 218.503 222.884 217.133 225.82C213.414 233.061 207.542 238.737 200.301 242.456C192.863 246.175 184.056 247.741 175.248 245.783C154.502 241.477 141.193 221.122 145.498 200.376C149.804 179.629 169.964 166.125 190.71 170.626C198.148 172.192 204.606 175.911 210.087 180.999C219.286 190.198 223.2 203.507 220.46 216.034Z" fill="url(#paint7_linear_2649_6762)"/>
<path d="M195.212 204.875H186.404V196.068C186.404 194.306 185.034 192.74 183.077 192.74C181.316 192.74 179.75 194.11 179.75 196.068V204.875H170.942C169.181 204.875 167.615 206.245 167.615 208.202C167.615 210.159 168.985 211.53 170.942 211.53H179.75V220.337C179.75 222.099 181.12 223.664 183.077 223.664C184.839 223.664 186.404 222.294 186.404 220.337V211.53H195.212C196.973 211.53 198.539 210.159 198.539 208.202C198.539 206.245 196.973 204.875 195.212 204.875Z" fill="white"/>
<defs>
<filter id="filter0_d_2649_6762" x="176.39" y="40.1671" width="190.211" height="218.189" filterUnits="userSpaceOnUse" color-interpolation-filters="sRGB">
<feFlood flood-opacity="0" result="BackgroundImageFix"/>
<feColorMatrix in="SourceAlpha" type="matrix" values="0 0 0 0 0 0 0 0 0 0 0 0 0 0 0 0 0 0 127 0" result="hardAlpha"/>
<feOffset dy="26.7021"/>
<feGaussianBlur stdDeviation="26.7021"/>
<feColorMatrix type="matrix" values="0 0 0 0 0.397708 0 0 0 0 0.47749 0 0 0 0 0.575 0 0 0 0.27 0"/>
<feBlend mode="normal" in2="BackgroundImageFix" result="effect1_dropShadow_2649_6762"/>
<feBlend mode="normal" in="SourceGraphic" in2="effect1_dropShadow_2649_6762" result="shape"/>
</filter>
<filter id="filter1_d_2649_6762" x="-2.67029e-05" y="46.7218" width="181.067" height="211.631" filterUnits="userSpaceOnUse" color-interpolation-filters="sRGB">
<feFlood flood-opacity="0" result="BackgroundImageFix"/>
<feColorMatrix in="SourceAlpha" type="matrix" values="0 0 0 0 0 0 0 0 0 0 0 0 0 0 0 0 0 0 127 0" result="hardAlpha"/>
<feOffset dy="26.7021"/>
<feGaussianBlur stdDeviation="26.7021"/>
<feColorMatrix type="matrix" values="0 0 0 0 0.397708 0 0 0 0 0.47749 0 0 0 0 0.575 0 0 0 0.27 0"/>
<feBlend mode="normal" in2="BackgroundImageFix" result="effect1_dropShadow_2649_6762"/>
<feBlend mode="normal" in="SourceGraphic" in2="effect1_dropShadow_2649_6762" result="shape"/>
</filter>
<filter id="filter2_d_2649_6762" x="42.4895" y="1.94246" width="270.426" height="271.168" filterUnits="userSpaceOnUse" color-interpolation-filters="sRGB">
<feFlood flood-opacity="0" result="BackgroundImageFix"/>
<feColorMatrix in="SourceAlpha" type="matrix" values="0 0 0 0 0 0 0 0 0 0 0 0 0 0 0 0 0 0 127 0" result="hardAlpha"/>
<feOffset dy="26.7021"/>
<feGaussianBlur stdDeviation="26.7021"/>
<feColorMatrix type="matrix" values="0 0 0 0 0.397708 0 0 0 0 0.47749 0 0 0 0 0.575 0 0 0 0.27 0"/>
<feBlend mode="normal" in2="BackgroundImageFix" result="effect1_dropShadow_2649_6762"/>
<feBlend mode="normal" in="SourceGraphic" in2="effect1_dropShadow_2649_6762" result="shape"/>
</filter>
<linearGradient id="paint0_linear_2649_6762" x1="257.973" y1="68.1118" x2="257.973" y2="90.2723" gradientUnits="userSpaceOnUse">
<stop stop-color="#15BA5C" stop-opacity="0.11"/>
<stop offset="1" stop-color="#15BA5C"/>
</linearGradient>
<linearGradient id="paint1_linear_2649_6762" x1="257.748" y1="152.03" x2="257.748" y2="138.966" gradientUnits="userSpaceOnUse">
<stop stop-color="white"/>
<stop offset="1" stop-color="#E2E5EC"/>
</linearGradient>
<linearGradient id="paint2_linear_2649_6762" x1="97.4252" y1="156.152" x2="97.4252" y2="146.562" gradientUnits="userSpaceOnUse">
<stop stop-color="white"/>
<stop offset="1" stop-color="#E2E5EC"/>
</linearGradient>
<linearGradient id="paint3_linear_2649_6762" x1="96.4538" y1="74.751" x2="96.4538" y2="94.0795" gradientUnits="userSpaceOnUse">
<stop stop-color="#15BA5C" stop-opacity="0.11"/>
<stop offset="1" stop-color="#15BA5C"/>
</linearGradient>
<linearGradient id="paint4_linear_2649_6762" x1="73.7887" y1="124.211" x2="73.7887" y2="149.929" gradientUnits="userSpaceOnUse">
<stop stop-color="#15BA5C" stop-opacity="0.11"/>
<stop offset="1" stop-color="#15BA5C"/>
</linearGradient>
<linearGradient id="paint5_linear_2649_6762" x1="178.404" y1="30.669" x2="178.404" y2="63.3788" gradientUnits="userSpaceOnUse">
<stop stop-color="#15BA5C" stop-opacity="0.11"/>
<stop offset="1" stop-color="#15BA5C"/>
</linearGradient>
<linearGradient id="paint6_linear_2649_6762" x1="178.097" y1="154.241" x2="178.097" y2="134.992" gradientUnits="userSpaceOnUse">
<stop stop-color="white"/>
<stop offset="1" stop-color="#E2E5EC"/>
</linearGradient>
<linearGradient id="paint7_linear_2649_6762" x1="183.01" y1="172.43" x2="183.01" y2="215.577" gradientUnits="userSpaceOnUse">
<stop stop-color="#15BA5C" stop-opacity="0.11"/>
<stop offset="1" stop-color="#15BA5C"/>
</linearGradient>
</defs>
</svg>
