<svg width="467" height="467" viewBox="0 0 467 467" fill="none" xmlns="http://www.w3.org/2000/svg">
<g filter="url(#filter0_f_2323_45193)">
<circle cx="233.284" cy="233.283" r="131.287" fill="#15BA5C" fill-opacity="0.5"/>
</g>
<circle cx="233.284" cy="233.284" r="146.214" fill="#DEFFEC" stroke="white" stroke-width="8.14182"/>
<mask id="mask0_2323_45193" style="mask-type:alpha" maskUnits="userSpaceOnUse" x="91" y="91" width="284" height="284">
<circle cx="233.284" cy="233.284" r="141.464" fill="white"/>
</mask>
<g mask="url(#mask0_2323_45193)">
<path d="M277.376 283.622C274.195 282.77 272.323 279.526 273.175 276.345L282.395 241.934C289.102 216.903 274.187 191.068 249.156 184.361C224.125 177.654 198.29 192.57 191.583 217.601L182.369 251.989C181.517 255.17 178.273 257.043 175.092 256.191C171.911 255.338 170.038 252.094 170.891 248.914L180.105 214.525C184.163 199.382 193.909 186.702 207.58 178.828C221.228 170.949 237.111 168.831 252.231 172.883C267.351 176.934 280.054 186.687 287.928 200.358C295.808 214.006 297.925 229.889 293.874 245.009L284.659 279.398C283.807 282.579 280.534 284.468 277.376 283.622Z" fill="white"/>
<path d="M157.865 182.281L182.55 188.896L174.337 219.55L149.651 212.936L157.865 182.281ZM304.939 221.69L329.624 228.304L321.411 258.959L296.725 252.344L304.939 221.69Z" fill="#15BA5C"/>
<path d="M279.727 401.619L114.836 357.436C107.783 355.547 103.542 348.234 105.438 341.158L140.467 210.426L331.011 261.482L295.982 392.214C294.086 399.29 286.779 403.509 279.727 401.619Z" fill="url(#paint0_linear_2323_45193)"/>
<path d="M331.011 261.481C319.595 255.038 311.435 247.416 313.39 239.936C314.62 235.251 320.685 230.873 329.607 228.274L243.024 205.123L157.848 182.251C164.144 188.903 167.362 195.793 166.085 200.466C164.044 207.898 153.351 210.468 140.467 210.425L331.011 261.481Z" fill="#0E9D4C"/>
<path d="M166.141 270.788C165.624 272.716 165.492 274.727 165.753 276.706C166.013 278.685 166.661 280.593 167.659 282.322C168.657 284.05 169.986 285.565 171.57 286.781C173.153 287.996 174.961 288.887 176.889 289.404C178.817 289.92 180.828 290.052 182.807 289.791C184.786 289.531 186.694 288.883 188.423 287.885C190.151 286.887 191.667 285.558 192.882 283.975C194.097 282.391 194.988 280.584 195.505 278.656C196.021 276.728 196.153 274.717 195.893 272.738C195.632 270.759 194.984 268.85 193.986 267.122C192.988 265.393 191.659 263.878 190.076 262.663C188.492 261.447 186.685 260.556 184.757 260.04C182.829 259.523 180.818 259.391 178.839 259.652C176.86 259.912 174.951 260.56 173.223 261.558C171.494 262.556 169.979 263.885 168.764 265.468C167.549 267.052 166.657 268.859 166.141 270.788Z" fill="#15BA5C"/>
<path d="M267.619 298.002C266.575 301.896 267.122 306.045 269.137 309.536C271.153 313.028 274.473 315.575 278.367 316.618C282.261 317.662 286.41 317.116 289.901 315.1C293.392 313.084 295.939 309.764 296.983 305.87C298.026 301.977 297.48 297.828 295.464 294.336C293.449 290.845 290.129 288.298 286.235 287.254C282.341 286.211 278.192 286.757 274.701 288.773C271.21 290.788 268.662 294.108 267.619 298.002Z" fill="#15BA5C"/>
<path d="M288.904 300.247L277.426 297.172L286.647 262.76C287.048 261.262 287.17 259.516 287.3 257.648C287.467 255.272 287.59 252.786 288.417 250.067L299.895 253.143C300.194 256.36 298.823 263.231 298.125 265.836L288.904 300.247ZM186.614 272.839L175.136 269.763L184.356 235.351C185.073 232.678 186.207 230.289 187.221 228.164C188.019 226.476 188.799 224.857 189.169 223.474L200.647 226.55C199.207 228.881 196.512 235.99 195.858 238.433L186.637 272.845L186.614 272.839Z" fill="#15BA5C"/>
<path d="M156.944 268.323C156.428 270.251 156.296 272.262 156.556 274.241C156.817 276.22 157.465 278.128 158.463 279.857C159.461 281.585 160.79 283.101 162.373 284.316C163.957 285.531 165.764 286.422 167.692 286.939C169.62 287.455 171.631 287.587 173.61 287.327C175.589 287.066 177.498 286.418 179.226 285.42C180.955 284.422 182.47 283.093 183.685 281.51C184.901 279.926 185.792 278.119 186.308 276.191C187.352 272.297 186.806 268.148 184.79 264.657C182.774 261.166 179.454 258.618 175.56 257.575C171.667 256.531 167.518 257.078 164.026 259.093C160.535 261.109 157.988 264.429 156.944 268.323Z" fill="white"/>
<path d="M258.445 295.545C257.928 297.473 257.796 299.484 258.057 301.463C258.318 303.442 258.965 305.351 259.963 307.079C260.961 308.808 262.29 310.323 263.874 311.538C265.457 312.753 267.265 313.645 269.193 314.161C271.121 314.678 273.132 314.81 275.111 314.549C277.09 314.289 278.998 313.641 280.727 312.643C282.456 311.645 283.971 310.316 285.186 308.733C286.401 307.149 287.292 305.341 287.809 303.413C288.326 301.485 288.457 299.474 288.197 297.495C287.936 295.516 287.289 293.608 286.29 291.879C285.292 290.151 283.964 288.636 282.38 287.42C280.796 286.205 278.989 285.314 277.061 284.797C275.133 284.281 273.122 284.149 271.143 284.409C269.164 284.67 267.256 285.318 265.527 286.316C263.798 287.314 262.283 288.643 261.068 290.226C259.853 291.81 258.961 293.617 258.445 295.545Z" fill="white"/>
<path d="M272.454 301.989C269.273 301.137 267.4 297.893 268.252 294.712L277.473 260.301C284.18 235.27 269.264 209.435 244.234 202.728C219.203 196.021 193.368 210.937 186.661 235.968L177.44 270.379C176.588 273.56 173.344 275.433 170.163 274.581C166.983 273.729 165.11 270.485 165.962 267.304L175.183 232.892C179.24 217.749 188.987 205.069 202.658 197.196C216.306 189.316 232.189 187.199 247.309 191.25C262.429 195.301 275.132 205.054 283.006 218.725C290.885 232.373 293.003 248.256 288.951 263.376L279.731 297.788C278.885 300.946 275.611 302.836 272.454 301.989Z" fill="white"/>
</g>
<g filter="url(#filter1_f_2323_45193)">
<circle cx="350.662" cy="155.258" r="32.9065" fill="#FF7070" fill-opacity="0.7"/>
</g>
<circle cx="343.199" cy="147.797" r="32.9065" fill="url(#paint1_linear_2323_45193)"/>
<path d="M342.86 135.243C343.31 135.243 343.741 135.422 344.059 135.74C344.377 136.058 344.556 136.49 344.556 136.939V146.438H354.055C354.505 146.439 354.936 146.618 355.254 146.936C355.572 147.254 355.75 147.685 355.75 148.135C355.75 148.584 355.572 149.016 355.254 149.334C354.936 149.652 354.505 149.831 354.055 149.831H344.556V159.33C344.556 159.78 344.377 160.211 344.059 160.529C343.741 160.847 343.31 161.025 342.86 161.025C342.41 161.025 341.979 160.847 341.661 160.529C341.343 160.211 341.164 159.78 341.164 159.33V149.831H331.665C331.215 149.831 330.783 149.652 330.465 149.334C330.147 149.016 329.968 148.585 329.968 148.135C329.968 147.685 330.147 147.254 330.465 146.936C330.783 146.617 331.215 146.439 331.665 146.438H341.164V136.939C341.164 136.49 341.343 136.058 341.661 135.74C341.979 135.422 342.41 135.243 342.86 135.243Z" fill="white" stroke="white" stroke-width="1.35697"/>
<defs>
<filter id="filter0_f_2323_45193" x="0.224815" y="0.223351" width="466.119" height="466.12" filterUnits="userSpaceOnUse" color-interpolation-filters="sRGB">
<feFlood flood-opacity="0" result="BackgroundImageFix"/>
<feBlend mode="normal" in="SourceGraphic" in2="BackgroundImageFix" result="shape"/>
<feGaussianBlur stdDeviation="50.8864" result="effect1_foregroundBlur_2323_45193"/>
</filter>
<filter id="filter1_f_2323_45193" x="290.616" y="95.2122" width="120.092" height="120.091" filterUnits="userSpaceOnUse" color-interpolation-filters="sRGB">
<feFlood flood-opacity="0" result="BackgroundImageFix"/>
<feBlend mode="normal" in="SourceGraphic" in2="BackgroundImageFix" result="shape"/>
<feGaussianBlur stdDeviation="13.5697" result="effect1_foregroundBlur_2323_45193"/>
</filter>
<linearGradient id="paint0_linear_2323_45193" x1="235.739" y1="235.954" x2="197.27" y2="379.524" gradientUnits="userSpaceOnUse">
<stop stop-color="#15BA5C"/>
<stop offset="1" stop-color="#15BA5C" stop-opacity="0.69"/>
</linearGradient>
<linearGradient id="paint1_linear_2323_45193" x1="343.199" y1="114.891" x2="343.199" y2="180.704" gradientUnits="userSpaceOnUse">
<stop stop-color="#FF9898"/>
<stop offset="1" stop-color="#FF4F4F"/>
</linearGradient>
</defs>
</svg>
