<svg width="301" height="300" viewBox="0 0 301 300" fill="none" xmlns="http://www.w3.org/2000/svg">
<circle cx="161.082" cy="154.403" r="139.665" fill="url(#paint0_linear_2004_133686)"/>
<circle cx="283.128" cy="79.9491" r="6.95555" stroke="#15BA5C" stroke-width="2.80734"/>
<circle cx="21.6942" cy="162.762" r="8.35922" fill="url(#paint1_linear_2004_133686)"/>
<circle cx="137.497" cy="289.797" r="6.95555" stroke="#15BA5C" stroke-width="2.80734"/>
<circle cx="154.775" cy="247.414" r="5.2837" stroke="#15BA5C" stroke-width="2.80734"/>
<g filter="url(#filter0_f_2004_133686)">
<path d="M60.0068 164.23L62.3763 170.634L68.7798 173.003L62.3763 175.373L60.0068 181.776L57.6373 175.373L51.2339 173.003L57.6373 170.634L60.0068 164.23Z" fill="#15BA5C"/>
</g>
<g filter="url(#filter1_f_2004_133686)">
<path d="M68.353 44.918L72.5976 56.3887L84.0684 60.6333L72.5976 64.8779L68.353 76.3486L64.1085 64.8779L52.6377 60.6333L64.1085 56.3887L68.353 44.918Z" fill="#15BA5C"/>
</g>
<path d="M287.809 206.34L291.331 215.858L300.849 219.38L291.331 222.902L287.809 232.421L284.287 222.902L274.768 219.38L284.287 215.858L287.809 206.34Z" fill="#15BA5C"/>
<g clip-path="url(#clip0_2004_133686)">
<path d="M257.529 205.592H75.1402C71.4092 205.592 68.385 202.568 68.385 198.837V192.082H257.529V205.592Z" fill="#0E9D4C"/>
<path d="M129.181 121.156H78.5177C76.6508 121.156 75.1401 122.669 75.1401 124.534V165.065C75.1401 166.932 76.6508 168.442 78.5177 168.442H129.181C131.048 168.442 132.559 166.932 132.559 165.065V124.534C132.559 122.669 131.048 121.156 129.181 121.156Z" fill="url(#paint2_linear_2004_133686)"/>
<path d="M169.712 111.023H119.049C117.182 111.023 115.671 112.536 115.671 114.401V154.932C115.671 156.799 117.182 158.31 119.049 158.31H169.712C171.579 158.31 173.09 156.799 173.09 154.932V114.401C173.09 112.536 171.579 111.023 169.712 111.023Z" fill="#0E9D4C"/>
<path d="M222.866 193.177L185.713 152.646C185.396 152.301 185.012 152.025 184.583 151.836C184.154 151.648 183.691 151.55 183.223 151.551H65.0074C61.2836 151.551 58.2522 154.582 58.2522 158.306V185.327C58.2522 192.778 64.3116 198.837 71.7625 198.837H220.376C221.032 198.837 221.673 198.646 222.222 198.288C222.771 197.929 223.203 197.419 223.466 196.818C223.731 196.219 223.815 195.555 223.708 194.908C223.602 194.262 223.309 193.66 222.866 193.177Z" fill="url(#paint3_linear_2004_133686)"/>
<path d="M263.325 151.554L236.083 146.257L227.03 121.054C224.321 114.96 218.265 111.023 211.596 111.023H189.978C184.391 111.023 179.845 115.569 179.845 121.156V178.575C179.845 189.75 188.936 198.84 200.111 198.84H264.285C269.872 198.84 274.417 194.295 274.417 188.708V161.687C274.417 155.156 269.753 152.725 263.325 151.554Z" fill="url(#paint4_linear_2004_133686)"/>
<path d="M274.417 171.82H262.596C259.798 171.82 257.53 169.552 257.53 166.754C257.53 163.956 259.798 161.688 262.596 161.688H274.417" fill="#0E9D4C"/>
<path d="M98.7833 121.156H105.538V151.554H98.7833V121.156ZM85.2729 121.156H92.0281V151.554H85.2729V121.156Z" fill="url(#paint5_linear_2004_133686)"/>
<path d="M58.2522 181.952C63.8484 181.952 68.3849 177.415 68.3849 171.819V161.686C68.3849 160.79 68.0291 159.931 67.3957 159.298C66.7622 158.664 65.9031 158.309 65.0074 158.309H58.2522V181.952Z" fill="#0E9D4C"/>
<path d="M81.8958 202.217C81.8958 205.322 82.5073 208.397 83.6955 211.265C84.8836 214.134 86.6252 216.74 88.8206 218.935C91.0161 221.131 93.6225 222.872 96.491 224.061C99.3595 225.249 102.434 225.86 105.539 225.86C108.644 225.86 111.718 225.249 114.587 224.061C117.455 222.872 120.062 221.131 122.257 218.935C124.452 216.74 126.194 214.134 127.382 211.265C128.57 208.397 129.182 205.322 129.182 202.217C129.182 199.112 128.57 196.038 127.382 193.169C126.194 190.301 124.452 187.695 122.257 185.499C120.062 183.304 117.455 181.562 114.587 180.374C111.718 179.186 108.644 178.574 105.539 178.574C102.434 178.574 99.3595 179.186 96.491 180.374C93.6225 181.562 91.0161 183.304 88.8206 185.499C86.6252 187.695 84.8836 190.301 83.6955 193.169C82.5073 196.038 81.8958 199.112 81.8958 202.217Z" fill="white"/>
<g filter="url(#filter2_i_2004_133686)">
<path d="M92.0286 202.217C92.0286 205.801 93.452 209.237 95.9856 211.771C98.5193 214.304 101.956 215.728 105.539 215.728C109.122 215.728 112.558 214.304 115.092 211.771C117.626 209.237 119.049 205.801 119.049 202.217C119.049 198.634 117.626 195.198 115.092 192.664C112.558 190.13 109.122 188.707 105.539 188.707C101.956 188.707 98.5193 190.13 95.9856 192.664C93.452 195.198 92.0286 198.634 92.0286 202.217Z" fill="#0E9D4C"/>
</g>
<path d="M216.999 202.217C216.999 208.488 219.489 214.502 223.923 218.935C228.357 223.369 234.371 225.86 240.642 225.86C246.912 225.86 252.926 223.369 257.36 218.935C261.794 214.502 264.285 208.488 264.285 202.217C264.285 195.947 261.794 189.933 257.36 185.499C252.926 181.065 246.912 178.574 240.642 178.574C234.371 178.574 228.357 181.065 223.923 185.499C219.489 189.933 216.999 195.947 216.999 202.217Z" fill="white"/>
<g filter="url(#filter3_i_2004_133686)">
<path d="M227.131 202.217C227.131 205.801 228.555 209.237 231.088 211.771C233.622 214.304 237.059 215.728 240.642 215.728C244.225 215.728 247.661 214.304 250.195 211.771C252.729 209.237 254.152 205.801 254.152 202.217C254.152 198.634 252.729 195.198 250.195 192.664C247.661 190.13 244.225 188.707 240.642 188.707C237.059 188.707 233.622 190.13 231.088 192.664C228.555 195.198 227.131 198.634 227.131 202.217Z" fill="#0E9D4C"/>
</g>
<path d="M227.029 121.053C226.501 119.865 225.813 118.788 225.051 117.777H189.978V139.501C189.978 143.231 193.002 146.256 196.733 146.256H236.082L227.029 121.053Z" fill="url(#paint6_linear_2004_133686)"/>
<path d="M267.662 161.688H274.417V171.82H267.662V161.688Z" fill="white"/>
<path d="M115.671 121.156H173.09V127.911H115.671V121.156Z" fill="url(#paint7_linear_2004_133686)"/>
<path d="M115.671 138.043H173.09V144.798H115.671V138.043Z" fill="url(#paint8_linear_2004_133686)"/>
<path d="M90.8876 233.482C93.2271 234.833 93.2271 238.209 90.8876 239.56L80.3601 245.638C78.0206 246.989 75.0963 245.3 75.0963 242.599L75.0963 230.443C75.0963 227.742 78.0206 226.053 80.3601 227.404L90.8876 233.482Z" fill="#15BA5C"/>
</g>
<defs>
<filter id="filter0_f_2004_133686" x="48.4265" y="161.423" width="23.1606" height="23.1616" filterUnits="userSpaceOnUse" color-interpolation-filters="sRGB">
<feFlood flood-opacity="0" result="BackgroundImageFix"/>
<feBlend mode="normal" in="SourceGraphic" in2="BackgroundImageFix" result="shape"/>
<feGaussianBlur stdDeviation="1.40367" result="effect1_foregroundBlur_2004_133686"/>
</filter>
<filter id="filter1_f_2004_133686" x="49.8304" y="42.1106" width="37.0453" height="37.0444" filterUnits="userSpaceOnUse" color-interpolation-filters="sRGB">
<feFlood flood-opacity="0" result="BackgroundImageFix"/>
<feBlend mode="normal" in="SourceGraphic" in2="BackgroundImageFix" result="shape"/>
<feGaussianBlur stdDeviation="1.40367" result="effect1_foregroundBlur_2004_133686"/>
</filter>
<filter id="filter2_i_2004_133686" x="92.0286" y="188.707" width="27.0208" height="29.8269" filterUnits="userSpaceOnUse" color-interpolation-filters="sRGB">
<feFlood flood-opacity="0" result="BackgroundImageFix"/>
<feBlend mode="normal" in="SourceGraphic" in2="BackgroundImageFix" result="shape"/>
<feColorMatrix in="SourceAlpha" type="matrix" values="0 0 0 0 0 0 0 0 0 0 0 0 0 0 0 0 0 0 127 0" result="hardAlpha"/>
<feOffset dy="2.80734"/>
<feGaussianBlur stdDeviation="7.01835"/>
<feComposite in2="hardAlpha" operator="arithmetic" k2="-1" k3="1"/>
<feColorMatrix type="matrix" values="0 0 0 0 0 0 0 0 0 0.581407 0 0 0 0 0.65 0 0 0 1 0"/>
<feBlend mode="normal" in2="shape" result="effect1_innerShadow_2004_133686"/>
</filter>
<filter id="filter3_i_2004_133686" x="227.131" y="188.707" width="27.0208" height="29.8269" filterUnits="userSpaceOnUse" color-interpolation-filters="sRGB">
<feFlood flood-opacity="0" result="BackgroundImageFix"/>
<feBlend mode="normal" in="SourceGraphic" in2="BackgroundImageFix" result="shape"/>
<feColorMatrix in="SourceAlpha" type="matrix" values="0 0 0 0 0 0 0 0 0 0 0 0 0 0 0 0 0 0 127 0" result="hardAlpha"/>
<feOffset dy="2.80734"/>
<feGaussianBlur stdDeviation="7.01835"/>
<feComposite in2="hardAlpha" operator="arithmetic" k2="-1" k3="1"/>
<feColorMatrix type="matrix" values="0 0 0 0 0 0 0 0 0 0.458417 0 0 0 0 0.5125 0 0 0 1 0"/>
<feBlend mode="normal" in2="shape" result="effect1_innerShadow_2004_133686"/>
</filter>
<linearGradient id="paint0_linear_2004_133686" x1="161.082" y1="14.7383" x2="161.082" y2="294.068" gradientUnits="userSpaceOnUse">
<stop stop-color="white" stop-opacity="0"/>
<stop offset="1" stop-color="#BCFFD9"/>
</linearGradient>
<linearGradient id="paint1_linear_2004_133686" x1="21.6942" y1="154.402" x2="21.6942" y2="171.121" gradientUnits="userSpaceOnUse">
<stop stop-color="#15BA5C"/>
<stop offset="1" stop-color="white"/>
</linearGradient>
<linearGradient id="paint2_linear_2004_133686" x1="103.85" y1="121.156" x2="103.85" y2="168.442" gradientUnits="userSpaceOnUse">
<stop stop-color="#15BA5C"/>
<stop offset="1" stop-color="white"/>
</linearGradient>
<linearGradient id="paint3_linear_2004_133686" x1="141.003" y1="151.551" x2="141.003" y2="198.837" gradientUnits="userSpaceOnUse">
<stop stop-color="#B5FFD5" stop-opacity="0.1"/>
<stop offset="0.137434" stop-color="#15BA5C"/>
</linearGradient>
<linearGradient id="paint4_linear_2004_133686" x1="179.67" y1="169.846" x2="274.417" y2="176.513" gradientUnits="userSpaceOnUse">
<stop stop-color="#15BA5C"/>
<stop offset="1" stop-color="#91FFC0"/>
</linearGradient>
<linearGradient id="paint5_linear_2004_133686" x1="95.4057" y1="121.156" x2="95.4057" y2="151.554" gradientUnits="userSpaceOnUse">
<stop stop-color="#15BA5C"/>
<stop offset="1" stop-color="#15BA5C" stop-opacity="0.2"/>
</linearGradient>
<linearGradient id="paint6_linear_2004_133686" x1="213.03" y1="117.777" x2="213.03" y2="146.256" gradientUnits="userSpaceOnUse">
<stop stop-color="#A4FFCB"/>
<stop offset="1" stop-color="#15BA5C"/>
</linearGradient>
<linearGradient id="paint7_linear_2004_133686" x1="144.381" y1="121.156" x2="144.381" y2="127.911" gradientUnits="userSpaceOnUse">
<stop stop-color="#15BA5C"/>
<stop offset="1" stop-color="#15BA5C" stop-opacity="0"/>
</linearGradient>
<linearGradient id="paint8_linear_2004_133686" x1="144.381" y1="138.043" x2="144.381" y2="144.798" gradientUnits="userSpaceOnUse">
<stop stop-color="#15BA5C"/>
<stop offset="1" stop-color="#15BA5C" stop-opacity="0"/>
</linearGradient>
<clipPath id="clip0_2004_133686">
<rect width="216.165" height="216.165" fill="white" transform="translate(58.2522 60.3594)"/>
</clipPath>
</defs>
</svg>
