<svg width="352" height="282" viewBox="0 0 352 282" fill="none" xmlns="http://www.w3.org/2000/svg">
<rect width="351.45" height="281.16" fill="white"/>
<path fill-rule="evenodd" clip-rule="evenodd" d="M291 91.377C296.435 91.377 300.841 95.7827 300.841 101.218C300.841 106.652 296.435 111.058 291 111.058H234.768C240.203 111.058 244.609 115.464 244.609 120.899C244.609 126.334 240.203 130.739 234.768 130.739H265.696C271.131 130.739 275.536 135.145 275.536 140.58C275.536 146.015 271.131 150.421 265.696 150.421H251.393C244.541 150.421 238.986 154.826 238.986 160.261C238.986 163.884 241.797 167.165 247.42 170.102C252.855 170.102 257.261 174.507 257.261 179.942C257.261 185.377 252.855 189.783 247.42 189.783H130.739C125.304 189.783 120.898 185.377 120.898 179.942C120.898 174.507 125.304 170.102 130.739 170.102H75.9129C70.478 170.102 66.0723 165.696 66.0723 160.261C66.0723 154.826 70.478 150.421 75.9129 150.421H132.145C137.58 150.421 141.985 146.015 141.985 140.58C141.985 135.145 137.58 130.739 132.145 130.739H96.9998C91.565 130.739 87.1592 126.334 87.1592 120.899C87.1592 115.464 91.565 111.058 96.9998 111.058H153.232C147.797 111.058 143.391 106.652 143.391 101.218C143.391 95.7827 147.797 91.377 153.232 91.377H291ZM291 130.739C296.435 130.739 300.841 135.145 300.841 140.58C300.841 146.015 296.435 150.421 291 150.421C285.565 150.421 281.16 146.015 281.16 140.58C281.16 135.145 285.565 130.739 291 130.739Z" fill="#F5F7FA"/>
<path d="M169.399 186.971C195.408 186.971 216.493 165.886 216.493 139.877C216.493 113.868 195.408 92.7827 169.399 92.7827C143.39 92.7827 122.305 113.868 122.305 139.877C122.305 165.886 143.39 186.971 169.399 186.971Z" fill="#F5F7FA" stroke="#B0B3B7" stroke-width="3.5145"/>
<path fill-rule="evenodd" clip-rule="evenodd" d="M161.853 176.419C164.325 176.876 166.841 177.113 169.399 177.131C189.974 177.131 206.653 160.452 206.653 139.877C206.653 119.303 189.974 102.624 169.399 102.624C164.114 102.624 159.086 103.724 154.531 105.709C146.617 109.158 140.133 115.276 136.217 122.926C133.614 128.011 132.146 133.773 132.146 139.877C132.146 145.416 133.354 150.673 135.522 155.397C137.07 158.771 139.107 161.873 141.542 164.613" fill="white"/>
<path d="M161.853 176.419C164.325 176.876 166.841 177.113 169.399 177.131C189.974 177.131 206.653 160.452 206.653 139.877C206.653 119.303 189.974 102.624 169.399 102.624C164.114 102.624 159.086 103.724 154.531 105.709C146.617 109.158 140.133 115.276 136.217 122.926C133.614 128.011 132.146 133.773 132.146 139.877C132.146 145.416 133.354 150.673 135.522 155.397C137.07 158.771 139.107 161.873 141.542 164.613" stroke="#B0B3B7" stroke-width="3.5145" stroke-linecap="round"/>
<path d="M145.918 168.801C148.938 171.255 152.349 173.246 156.045 174.666" stroke="#B0B3B7" stroke-width="3.5145" stroke-linecap="round"/>
<path d="M208.059 177.131L216.493 185.566" stroke="#B0B3B7" stroke-width="3.5145"/>
<path fill-rule="evenodd" clip-rule="evenodd" d="M215.13 184.202C212.47 186.863 212.47 191.177 215.13 193.838L230.714 209.421C233.375 212.082 237.689 212.082 240.35 209.421C243.01 206.761 243.01 202.447 240.35 199.786L224.766 184.202C222.105 181.541 217.791 181.541 215.13 184.202Z" fill="#F5F7FA" stroke="#B0B3B7" stroke-width="3.5145"/>
<path d="M222.116 186.971L237.58 202.435" stroke="white" stroke-width="3.5145" stroke-linecap="round"/>
<path fill-rule="evenodd" clip-rule="evenodd" d="M160.261 123.71C160.261 140.015 173.478 153.232 189.782 153.232C192.985 153.232 196.069 152.722 198.957 151.779C194.243 163.476 182.785 171.733 169.398 171.733C151.805 171.733 137.542 157.471 137.542 139.877C137.542 123.935 149.253 110.728 164.541 108.389C161.825 112.857 160.261 118.101 160.261 123.71Z" fill="#F5F7FA"/>
<path d="M170.102 113.87C168.312 113.87 166.563 114.046 164.871 114.382M159.762 115.945C150.145 119.986 143.392 129.494 143.392 140.58" stroke="#B0B3B7" stroke-width="3.5145" stroke-linecap="round"/>
<path d="M244.856 140.267H233.362M253.746 129.333H229.601H253.746ZM263.587 129.333H260.464H263.587Z" stroke="#B0B3B7" stroke-width="3.5145" stroke-linecap="round" stroke-linejoin="round"/>
<path d="M118.334 171.195H106.84M111.761 158.855H87.615H111.761ZM79.4273 158.855H73.4932H79.4273Z" stroke="#B0B3B7" stroke-width="3.5145" stroke-linecap="round" stroke-linejoin="round"/>
</svg>
