<svg width="447" height="358" viewBox="0 0 447 358" fill="none" xmlns="http://www.w3.org/2000/svg">
<g clip-path="url(#clip0_2779_2618)">
<circle cx="240.5" cy="182.5" r="175.5" fill="#15BA5C" fill-opacity="0.1"/>
<circle cx="76" cy="64" r="11" fill="#E8F8EF"/>
<circle cx="360.5" cy="20.5" r="20.5" fill="#E8F8EF"/>
<circle cx="79.5" cy="295.5" r="19.5" fill="#E8F8EF"/>
<circle cx="428.5" cy="276.5" r="19.5" fill="#E8F8EF"/>
<circle cx="390.5" cy="298.5" r="9.5" fill="#E8F8EF"/>
<path d="M269.79 34.537C269.21 34.4137 269.21 33.5863 269.79 33.463L278.556 31.5989C278.767 31.554 278.932 31.3894 278.978 31.1783L280.865 22.4744C280.99 21.8975 281.813 21.8975 281.938 22.4744L283.826 31.1783C283.872 31.3894 284.037 31.554 284.248 31.5989L293.014 33.463C293.594 33.5863 293.594 34.4137 293.014 34.537L284.248 36.4011C284.037 36.446 283.872 36.6106 283.826 36.8217L281.938 45.5256C281.813 46.1025 280.99 46.1025 280.865 45.5256L278.978 36.8217C278.932 36.6106 278.767 36.446 278.556 36.4011L269.79 34.537Z" fill="#15BA5C"/>
<path d="M56.2229 189.622C56.4467 188.565 57.9558 188.565 58.1796 189.622L61.5224 205.415C61.6038 205.799 61.9034 206.101 62.2878 206.185L77.9173 209.589C78.9669 209.818 78.9668 211.315 77.9173 211.544L62.2878 214.948C61.9034 215.032 61.6038 215.334 61.5224 215.718L58.1796 231.511C57.9558 232.568 56.4467 232.568 56.2229 231.511L52.8801 215.718C52.7986 215.334 52.499 215.032 52.1146 214.948L36.4851 211.544C35.4356 211.315 35.4356 209.818 36.4851 209.589L52.1146 206.185C52.499 206.101 52.7986 205.799 52.8801 205.415L56.2229 189.622Z" fill="#15BA5C"/>
<path d="M397.345 68.6219C397.568 67.5647 399.078 67.5647 399.301 68.6219L401.251 77.835C401.333 78.2199 401.633 78.5212 402.017 78.605L411.161 80.597C412.21 80.8256 412.21 82.3225 411.161 82.5512L402.017 84.5432C401.633 84.6269 401.333 84.9283 401.251 85.3132L399.301 94.5262C399.078 95.5834 397.568 95.5834 397.345 94.5262L395.395 85.3132C395.313 84.9283 395.014 84.6269 394.629 84.5432L385.485 82.5512C384.436 82.3225 384.436 80.8256 385.485 80.597L394.629 78.605C395.014 78.5212 395.313 78.2199 395.395 77.835L397.345 68.6219Z" fill="#15BA5C"/>
<path d="M437.658 216.33L440.721 230.797L454.981 233.904L440.721 237.011L437.658 251.478L434.596 237.011L420.335 233.904L434.596 230.797L437.658 216.33Z" fill="white"/>
<path d="M161.637 110.921C167.596 113.514 171.885 115.759 174.84 117.735C177.843 119.743 179.235 121.323 179.75 122.49C180.17 123.444 180.076 124.266 179.364 125.293C178.56 126.452 177.05 127.715 174.832 129.151C172.646 130.566 169.986 132.019 167.041 133.634C164.123 135.234 160.957 136.976 157.875 138.926C151.745 142.803 145.681 147.654 142.36 154.232C139.011 160.864 139.065 168.54 140.043 175.639C140.535 179.209 141.273 182.711 141.978 185.936C142.691 189.195 143.36 192.122 143.755 194.676C144.156 197.269 144.224 199.194 143.909 200.507C143.759 201.129 143.542 201.527 143.306 201.791C143.082 202.042 142.754 202.268 142.208 202.417C141.012 202.743 138.906 202.659 135.377 201.599C131.939 200.566 127.415 198.69 121.518 195.773C105.49 184.55 94.4196 173.105 88.8177 161.651C83.2524 150.271 83.0382 138.809 88.8856 127.229C100.522 104.185 132.872 96.3998 161.534 110.873L161.585 110.899L161.637 110.921Z" fill="url(#paint0_linear_2779_2618)" stroke="#15BA5C" stroke-width="4"/>
<path d="M22.7262 103.038L23.9218 102.939C47.8288 100.961 71.7562 106.507 92.3551 118.801" stroke="#15BA5C" stroke-width="4"/>
<path d="M15.4536 116.688L17.4473 116.516C41.0778 114.484 64.7571 119.829 85.2233 131.815" stroke="#15BA5C" stroke-width="4"/>
<path d="M190.346 118.633C208.11 128.768 215.251 139.156 216.624 149.977C218.024 161.007 213.536 173.043 206.643 186.693C199.782 200.28 192.027 211.293 181.931 216.839C172.015 222.287 159.412 222.673 142.237 214C120.22 202.883 112.541 172.57 125.978 145.96C139.407 119.367 168.334 107.549 190.346 118.633Z" fill="#15BA5C" fill-opacity="0.2" stroke="#15BA5C" stroke-width="4"/>
<ellipse cx="176.332" cy="171.253" rx="38.238" ry="52.6208" transform="rotate(-155.936 176.332 171.253)" fill="white"/>
<path d="M200.433 123.728C209.873 128.495 215.961 138.035 218.004 149.876C220.047 161.717 218.004 175.723 211.281 189.036C204.559 202.35 194.501 212.309 183.759 217.694C173.017 223.079 161.726 223.844 152.285 219.077C142.845 214.309 136.756 204.769 134.713 192.928C132.67 181.087 134.713 167.08 141.436 153.767C148.159 140.454 158.217 130.495 168.958 125.11C179.7 119.725 190.992 118.961 200.433 123.728Z" fill="white" stroke="#15BA5C" stroke-width="4"/>
<path d="M184.831 165.674C181.485 163.984 180.028 159.454 182.088 155.376C184.147 151.297 188.657 149.78 192.003 151.47C195.349 153.16 196.805 157.689 194.746 161.768C192.686 165.846 188.177 167.363 184.831 165.674Z" fill="#15BA5C" stroke="#15BA5C" stroke-width="4"/>
<path d="M170.002 195.037C166.656 193.348 165.199 188.818 167.258 184.739C169.318 180.661 173.828 179.144 177.174 180.833C180.52 182.523 181.976 187.053 179.917 191.131C177.857 195.21 173.348 196.727 170.002 195.037Z" fill="#15BA5C" stroke="#15BA5C" stroke-width="4"/>
<path d="M298.299 232.06C279.793 200.991 224.495 195.501 269.841 172.796C307.287 150.492 352.646 157.597 371.152 188.666C389.658 219.736 374.303 263.004 336.857 285.308C294.495 314.001 316.805 263.129 298.299 232.06Z" fill="url(#paint1_linear_2779_2618)"/>
<path d="M335.735 283.653C330.502 287.198 326.367 289.442 323.099 290.658C319.813 291.879 317.617 291.98 316.127 291.543C314.719 291.129 313.615 290.138 312.701 288.351C311.761 286.512 311.106 283.977 310.608 280.786C310.113 277.615 309.797 273.967 309.455 269.956C309.115 265.971 308.75 261.656 308.156 257.255C306.97 248.465 304.848 239.146 300.017 231.036C295.19 222.932 288.016 216.574 280.859 211.278C277.275 208.625 273.658 206.212 270.318 203.979C266.957 201.732 263.902 199.682 261.349 197.709C258.781 195.724 256.861 193.919 255.689 192.205C254.548 190.535 254.206 189.095 254.51 187.687C254.831 186.198 255.953 184.354 258.584 182.108C261.201 179.874 265.135 177.389 270.736 174.584L270.801 174.552L270.864 174.515C307.676 152.589 351.663 159.856 369.433 189.69C387.204 219.524 372.645 261.664 335.833 283.59L335.783 283.62L335.735 283.653Z" stroke="#15BA5C" stroke-opacity="0.5" stroke-width="4"/>
<path d="M443.044 133.142L442.304 134.551C427.508 162.735 404.271 185.587 375.845 199.91" stroke="#15BA5C" stroke-width="4"/>
<path d="M432.931 115.28L431.704 117.635C417.166 145.547 394.331 168.264 366.344 182.657" stroke="#15BA5C" stroke-width="4"/>
<path d="M218.012 197.923L228.868 191.457L237.75 186.166" stroke="#15BA5C" stroke-width="4"/>
<path d="M306.606 310.359C282.895 323.613 265.958 324.297 252.515 317.892C238.867 311.39 228.303 297.371 217.919 279.938C207.588 262.592 200.416 244.653 201.288 228.539C201.721 220.53 204.14 212.961 209.18 206.082C214.23 199.189 221.983 192.893 233.224 187.565L233.309 187.525L233.39 187.476C261.899 170.495 301.686 183.703 322.06 217.908C342.43 252.106 335.101 293.372 306.606 310.359Z" fill="#15BA5C" fill-opacity="0.2" stroke="#15BA5C" stroke-width="4"/>
<path d="M293.759 318.014C281.484 325.325 266.242 325.327 251.384 319.13C236.527 312.934 222.19 300.578 211.998 283.467C201.807 266.356 197.77 247.865 199.397 231.85C201.025 215.835 208.285 202.433 220.56 195.121C232.836 187.809 248.078 187.808 262.936 194.004C277.794 200.2 292.13 212.557 302.322 229.667C312.514 246.778 316.551 265.269 314.923 281.284C313.295 297.3 306.035 310.702 293.759 318.014Z" fill="white" stroke="#15BA5C" stroke-width="4"/>
<path d="M270.623 280.66L211.071 316.131C206.852 318.644 201.395 317.261 198.883 313.042C196.37 308.824 197.754 303.368 201.972 300.855L261.525 265.384C265.743 262.871 271.199 264.254 273.712 268.472C276.225 272.69 274.842 278.147 270.623 280.66Z" fill="#E8F8EF" stroke="#15BA5C" stroke-width="4"/>
<path d="M245.623 242.66L186.071 278.131C181.852 280.644 176.395 279.261 173.883 275.042C171.37 270.824 172.754 265.368 176.972 262.855L236.525 227.384C240.743 224.871 246.199 226.254 248.712 230.472C251.225 234.69 249.842 240.147 245.623 242.66Z" fill="#E8F8EF" stroke="#15BA5C" stroke-width="4"/>
</g>
<defs>
<linearGradient id="paint0_linear_2779_2618" x1="147.952" y1="101.501" x2="103.747" y2="189.043" gradientUnits="userSpaceOnUse">
<stop stop-color="#CDFFD5"/>
<stop offset="1" stop-color="#CDFFD5"/>
</linearGradient>
<linearGradient id="paint1_linear_2779_2618" x1="360.403" y1="271.505" x2="293.145" y2="158.585" gradientUnits="userSpaceOnUse">
<stop stop-color="#15BA5C" stop-opacity="0.5"/>
<stop offset="1" stop-color="#CDFFD5"/>
</linearGradient>
<clipPath id="clip0_2779_2618">
<rect width="447" height="358" fill="white"/>
</clipPath>
</defs>
</svg>
