<svg width="180" height="120" viewBox="0 0 180 120" fill="none" xmlns="http://www.w3.org/2000/svg">
<g clip-path="url(#clip0_262_1205)">
<mask id="mask0_262_1205" style="mask-type:luminance" maskUnits="userSpaceOnUse" x="0" y="0" width="180" height="120">
<path d="M0 0H180V120H0V0Z" fill="white"/>
</mask>
<g mask="url(#mask0_262_1205)">
<path d="M125.045 39.9095C123.603 27.9601 96.2249 7.9663 69.2703 21.8963C56.7341 28.3755 59.0687 35.0549 50.5771 45.8947C45.5157 52.3553 37.5959 57.9613 36.5757 66.2367C35.6933 73.3799 38.2487 80.4409 42.6815 84.5459C52.6509 93.7777 70.2739 98.1983 83.4163 78.5737C96.5587 58.9491 128.759 70.7287 125.045 39.9095Z" fill="url(#paint0_linear_262_1205)"/>
<path d="M85.8841 92.8809C101.712 80.3311 118.097 66.8671 135.61 62.9487C153.675 58.9027 155.043 64.9887 153.721 73.6595C152.4 82.3301 141.891 100.754 117.345 105.902C92.7927 111.051 71.0731 104.627 85.8841 92.8809Z" fill="url(#paint1_linear_262_1205)"/>
<path fill-rule="evenodd" clip-rule="evenodd" d="M119.567 58.469C119.567 74.7258 106.389 87.9038 90.1323 87.9038C73.8755 87.9038 60.6973 74.7258 60.6973 58.469C60.6973 42.2122 73.8755 29.0342 90.1323 29.0342C106.389 29.0342 119.567 42.2122 119.567 58.469Z" fill="#99B9EC" stroke="#99B9EC" stroke-width="5.913" stroke-linecap="round" stroke-linejoin="round"/>
<path d="M123.768 92.1083L110.957 79.2969" stroke="#99B9EC" stroke-width="5.913" stroke-linecap="round" stroke-linejoin="round"/>
<path d="M68.6562 58.7616H78.5072L83.604 51.1592L90.3976 66.364L95.4944 58.7616H110.695" stroke="white" stroke-width="4.4014" stroke-linecap="round" stroke-linejoin="round"/>
<path d="M70.7528 96.531C72.4857 96.531 73.8904 97.9357 73.8904 99.6686C73.8904 101.401 72.4857 102.806 70.7528 102.806C69.02 102.806 67.6152 101.401 67.6152 99.6686C67.6152 97.9357 69.02 96.531 70.7528 96.531Z" fill="#99B9EC"/>
<path d="M126.273 25.5158C124.476 26.5531 122.179 25.9375 121.141 24.1409C120.104 22.3442 120.72 20.0468 122.516 19.0095C124.313 17.9722 126.61 18.5878 127.648 20.3845C128.685 22.1811 128.069 24.4785 126.273 25.5158Z" fill="#99B9EC"/>
<path d="M34.6699 50.4385C36.2027 50.4385 37.4453 51.681 37.4453 53.2139C37.4453 54.7467 36.2027 55.9893 34.6699 55.9893C33.1371 55.9893 31.8945 54.7467 31.8945 53.2139C31.8945 51.681 33.1371 50.4385 34.6699 50.4385Z" fill="#99B9EC"/>
<path d="M136.935 54.4456C136.127 54.9121 135.094 54.6353 134.628 53.8273C134.161 53.0192 134.438 51.986 135.246 51.5195C136.054 51.053 137.087 51.3298 137.554 52.1379C138.02 52.9459 137.743 53.9791 136.935 54.4456Z" fill="#99B9EC"/>
<path d="M49.9973 36.4399C49.1976 36.4399 48.5493 37.0882 48.5493 37.8879C48.5493 38.6876 49.1976 39.3359 49.9973 39.3359C50.797 39.3359 51.4453 38.6876 51.4453 37.8879C51.4453 37.0882 50.797 36.4399 49.9973 36.4399Z" fill="#E1E4E5"/>
<path d="M146.829 73.5185C147.868 72.9187 148.224 71.5902 147.624 70.5513C147.024 69.5123 145.696 69.1564 144.657 69.7562C143.618 70.356 143.262 71.6845 143.861 72.7235C144.461 73.7624 145.79 74.1184 146.829 73.5185Z" fill="#E1E4E5"/>
<path d="M40.2246 87.8413C41.7574 87.8413 43 89.0839 43 90.6167C43 92.1495 41.7574 93.3921 40.2246 93.3921C38.6918 93.3921 37.4492 92.1495 37.4492 90.6167C37.4492 89.0839 38.6918 87.8413 40.2246 87.8413Z" fill="#E1E4E5"/>
<path d="M85.2464 13.412C84.1296 14.0568 82.7015 13.6742 82.0568 12.5574C81.412 11.4406 81.7946 10.0125 82.9114 9.3677C84.0282 8.7229 85.4563 9.10555 86.1011 10.2224C86.7459 11.3392 86.3632 12.7672 85.2464 13.412Z" fill="#E1E4E5"/>
</g>
</g>
<defs>
<linearGradient id="paint0_linear_262_1205" x1="84.8953" y1="-26.1703" x2="75.9917" y2="176.745" gradientUnits="userSpaceOnUse">
<stop stop-color="white"/>
<stop offset="1" stop-color="#EEEEEE"/>
</linearGradient>
<linearGradient id="paint1_linear_262_1205" x1="83.5919" y1="148.35" x2="169.851" y2="-12.2961" gradientUnits="userSpaceOnUse">
<stop stop-color="white"/>
<stop offset="1" stop-color="#EEEEEE"/>
</linearGradient>
<clipPath id="clip0_262_1205">
<rect width="180" height="120" fill="white"/>
</clipPath>
</defs>
</svg>
