<svg width="24" height="24" viewBox="0 0 24 24" fill="none" xmlns="http://www.w3.org/2000/svg">
<path d="M20.4838 10.7311H20.3122L18.534 5.52914L3.27149 10.7311L2.92619 10.7282M2.43848 10.7321H2.92619L13.7983 2.04688L16.5461 5.89981" stroke="#E33629" stroke-width="1.95085" stroke-linecap="square"/>
<path d="M14.1435 15.6026C14.1435 16.2494 13.8866 16.8696 13.4292 17.327C12.9719 17.7843 12.3517 18.0412 11.7049 18.0412C11.0582 18.0412 10.4379 17.7843 9.9806 17.327C9.52328 16.8696 9.26636 16.2494 9.26636 15.6026C9.26636 14.9559 9.52328 14.3356 9.9806 13.8783C10.4379 13.421 11.0582 13.1641 11.7049 13.1641C12.3517 13.1641 12.9719 13.421 13.4292 13.8783C13.8866 14.3356 14.1435 14.9559 14.1435 15.6026Z" stroke="#E33629" stroke-width="1.95085" stroke-linecap="square"/>
<path d="M20.9716 10.7266V20.4808H2.43848V10.7266H20.9716Z" stroke="#E33629" stroke-width="1.95085" stroke-linecap="square"/>
<path d="M2.43848 10.7266H4.38933C4.38933 11.244 4.18379 11.7402 3.81794 12.106C3.45208 12.4719 2.95587 12.6774 2.43848 12.6774V10.7266ZM20.9716 10.7266H19.0207C19.0207 11.244 19.2262 11.7402 19.5921 12.106C19.958 12.4719 20.4542 12.6774 20.9716 12.6774V10.7266ZM2.43848 20.4808H4.39128C4.39153 20.2243 4.3412 19.9702 4.24315 19.7332C4.14511 19.4962 4.00127 19.2808 3.81989 19.0994C3.6385 18.918 3.42313 18.7742 3.18608 18.6761C2.94904 18.5781 2.69499 18.5278 2.43848 18.528V20.4808ZM20.9716 20.4808H19.0207C19.0207 19.9634 19.2262 19.4672 19.5921 19.1014C19.958 18.7355 20.4542 18.53 20.9716 18.53V20.4808Z" stroke="#E33629" stroke-width="1.95085" stroke-linecap="square"/>
</svg>
