<svg width="24" height="24" viewBox="0 0 24 24" fill="none" xmlns="http://www.w3.org/2000/svg">
<path d="M20.484 10.7311H20.3123L18.5341 5.52914L3.27161 10.7311L2.92631 10.7282M2.4386 10.7321H2.92631L13.7984 2.04688L16.5462 5.89981" stroke="#9747FF" stroke-width="1.95085" stroke-linecap="square"/>
<path d="M14.1437 15.6026C14.1437 16.2494 13.8868 16.8696 13.4295 17.327C12.9722 17.7843 12.3519 18.0412 11.7052 18.0412C11.0584 18.0412 10.4382 17.7843 9.98084 17.327C9.52352 16.8696 9.2666 16.2494 9.2666 15.6026C9.2666 14.9559 9.52352 14.3356 9.98084 13.8783C10.4382 13.421 11.0584 13.1641 11.7052 13.1641C12.3519 13.1641 12.9722 13.421 13.4295 13.8783C13.8868 14.3356 14.1437 14.9559 14.1437 15.6026Z" stroke="#9747FF" stroke-width="1.95085" stroke-linecap="square"/>
<path d="M20.9717 10.7266V20.4808H2.4386V10.7266H20.9717Z" stroke="#9747FF" stroke-width="1.95085" stroke-linecap="square"/>
<path d="M2.4386 10.7266H4.38945C4.38945 11.244 4.18391 11.7402 3.81806 12.106C3.4522 12.4719 2.956 12.6774 2.4386 12.6774V10.7266ZM20.9717 10.7266H19.0208C19.0208 11.244 19.2264 11.7402 19.5922 12.106C19.9581 12.4719 20.4543 12.6774 20.9717 12.6774V10.7266ZM2.4386 20.4808H4.3914C4.39166 20.2243 4.34132 19.9702 4.24327 19.7332C4.14523 19.4962 4.0014 19.2808 3.82001 19.0994C3.63862 18.918 3.42325 18.7742 3.18621 18.6761C2.94917 18.5781 2.69512 18.5278 2.4386 18.528V20.4808ZM20.9717 20.4808H19.0208C19.0208 19.9634 19.2264 19.4672 19.5922 19.1014C19.9581 18.7355 20.4543 18.53 20.9717 18.53V20.4808Z" stroke="#9747FF" stroke-width="1.95085" stroke-linecap="square"/>
</svg>
