<svg width="24" height="24" viewBox="0 0 24 24" fill="none" xmlns="http://www.w3.org/2000/svg">
<path d="M20.4839 10.7311H20.3122L18.534 5.52914L3.27155 10.7311L2.92625 10.7282M2.43854 10.7321H2.92625L13.7983 2.04688L16.5461 5.89981" stroke="#15BA5C" stroke-width="1.95085" stroke-linecap="square"/>
<path d="M14.1437 15.6026C14.1437 16.2494 13.8867 16.8696 13.4294 17.327C12.9721 17.7843 12.3519 18.0412 11.7051 18.0412C11.0584 18.0412 10.4381 17.7843 9.98078 17.327C9.52346 16.8696 9.26654 16.2494 9.26654 15.6026C9.26654 14.9559 9.52346 14.3356 9.98078 13.8783C10.4381 13.421 11.0584 13.1641 11.7051 13.1641C12.3519 13.1641 12.9721 13.421 13.4294 13.8783C13.8867 14.3356 14.1437 14.9559 14.1437 15.6026Z" stroke="#15BA5C" stroke-width="1.95085" stroke-linecap="square"/>
<path d="M20.9716 10.7266V20.4808H2.43854V10.7266H20.9716Z" stroke="#15BA5C" stroke-width="1.95085" stroke-linecap="square"/>
<path d="M2.43854 10.7266H4.38939C4.38939 11.244 4.18385 11.7402 3.818 12.106C3.45214 12.4719 2.95594 12.6774 2.43854 12.6774V10.7266ZM20.9716 10.7266H19.0208C19.0208 11.244 19.2263 11.7402 19.5922 12.106C19.958 12.4719 20.4542 12.6774 20.9716 12.6774V10.7266ZM2.43854 20.4808H4.39134C4.3916 20.2243 4.34126 19.9702 4.24321 19.7332C4.14517 19.4962 4.00133 19.2808 3.81995 19.0994C3.63856 18.918 3.42319 18.7742 3.18615 18.6761C2.94911 18.5781 2.69506 18.5278 2.43854 18.528V20.4808ZM20.9716 20.4808H19.0208C19.0208 19.9634 19.2263 19.4672 19.5922 19.1014C19.958 18.7355 20.4542 18.53 20.9716 18.53V20.4808Z" stroke="#15BA5C" stroke-width="1.95085" stroke-linecap="square"/>
</svg>
