<svg width="109" height="108" viewBox="0 0 109 108" fill="none" xmlns="http://www.w3.org/2000/svg">
<path d="M50.0117 108C77.626 108 100.012 85.6142 100.012 58C100.012 30.3858 77.626 8 50.0117 8C22.3975 8 0.0117188 30.3858 0.0117188 58C0.0117188 85.6142 22.3975 108 50.0117 108Z" fill="#15BA5C" fill-opacity="0.1"/>
<path d="M13.0117 6C14.6686 6 16.0117 4.65685 16.0117 3C16.0117 1.34315 14.6686 0 13.0117 0C11.3549 0 10.0117 1.34315 10.0117 3C10.0117 4.65685 11.3549 6 13.0117 6Z" fill="#FF4D69"/>
<path d="M84.0117 10C85.6686 10 87.0117 8.65685 87.0117 7C87.0117 5.34315 85.6686 4 84.0117 4C82.3549 4 81.0117 5.34315 81.0117 7C81.0117 8.65685 82.3549 10 84.0117 10Z" fill="#15BA5C"/>
<path d="M105.012 47C106.669 47 108.012 45.6569 108.012 44C108.012 42.3431 106.669 41 105.012 41C103.355 41 102.012 42.3431 102.012 44C102.012 45.6569 103.355 47 105.012 47Z" fill="#FFA100"/>
<path d="M6.01172 101C7.66857 101 9.01172 99.6569 9.01172 98C9.01172 96.3431 7.66857 95 6.01172 95C4.35486 95 3.01172 96.3431 3.01172 98C3.01172 99.6569 4.35486 101 6.01172 101Z" fill="#15BA5C"/>
<path d="M68.0109 43V97H18.7409C10.3126 90.2487 4.29653 80.9501 1.59267 70.4952C-1.11119 60.0403 -0.357543 48.991 3.74088 39H64.0109C65.0717 39 66.0892 39.4214 66.8393 40.1716C67.5894 40.9217 68.0109 41.9391 68.0109 43Z" fill="#319F43"/>
<path d="M61.0117 84H49.0117C47.9071 84 47.0117 84.8954 47.0117 86V90C47.0117 91.1046 47.9071 92 49.0117 92H61.0117C62.1163 92 63.0117 91.1046 63.0117 90V86C63.0117 84.8954 62.1163 84 61.0117 84Z" fill="white"/>
<path d="M56.0117 81H62.0117C62.2769 81 62.5313 80.8946 62.7188 80.7071C62.9064 80.5196 63.0117 80.2652 63.0117 80C63.0117 79.7348 62.9064 79.4804 62.7188 79.2929C62.5313 79.1054 62.2769 79 62.0117 79H56.0117C55.7465 79 55.4921 79.1054 55.3046 79.2929C55.1171 79.4804 55.0117 79.7348 55.0117 80C55.0117 80.2652 55.1171 80.5196 55.3046 80.7071C55.4921 80.8946 55.7465 81 56.0117 81ZM56.0117 76H62.0117C62.2769 76 62.5313 75.8946 62.7188 75.7071C62.9064 75.5196 63.0117 75.2652 63.0117 75C63.0117 74.7348 62.9064 74.4804 62.7188 74.2929C62.5313 74.1054 62.2769 74 62.0117 74H56.0117C55.7465 74 55.4921 74.1054 55.3046 74.2929C55.1171 74.4804 55.0117 74.7348 55.0117 75C55.0117 75.2652 55.1171 75.5196 55.3046 75.7071C55.4921 75.8946 55.7465 76 56.0117 76Z" fill="white"/>
<path d="M102.012 79V97H68.0117V59H92.0117L94.0117 63L91.2717 71.81L102.012 79Z" fill="#15BA5C"/>
<path d="M68.0117 45V59H92.0117L91.1217 57.62C88.6339 53.7501 85.2144 50.5668 81.1767 48.3618C77.1389 46.1569 72.6123 45.0009 68.0117 45Z" fill="#15BA5C" fill-opacity="0.4"/>
<path d="M102.012 79H75.0117V63H94.0117L102.012 79Z" fill="white"/>
<path d="M102.012 97V98C102.012 98.7956 101.696 99.5587 101.134 100.121C100.571 100.684 99.8078 101 99.0122 101H24.5122C22.4979 99.8029 20.5698 98.4663 18.7422 97H102.012Z" fill="#15BA5C" fill-opacity="0.4"/>
<path d="M83.0117 108C87.9823 108 92.0117 103.971 92.0117 99C92.0117 94.0294 87.9823 90 83.0117 90C78.0412 90 74.0117 94.0294 74.0117 99C74.0117 103.971 78.0412 108 83.0117 108Z" fill="#319F43"/>
<path d="M83.0117 103C85.2209 103 87.0117 101.209 87.0117 99C87.0117 96.7909 85.2209 95 83.0117 95C80.8026 95 79.0117 96.7909 79.0117 99C79.0117 101.209 80.8026 103 83.0117 103Z" fill="white"/>
<path d="M22.952 99.9965C18.7848 97.3087 15.0377 94.0199 11.832 90.2365C13.2431 89.8844 14.7186 89.8795 16.132 90.2223C17.5454 90.565 18.8547 91.2452 19.9478 92.2046C21.0408 93.164 21.8851 94.374 22.4083 95.731C22.9316 97.088 23.1181 98.5516 22.952 99.9965Z" fill="#319F43"/>
<path d="M51.6012 24.8126L36.6012 35.8126C36.452 35.9217 36.2754 35.9872 36.0911 36.002C35.9068 36.0168 35.7221 35.9802 35.5573 35.8962C35.3926 35.8123 35.2543 35.6844 35.1579 35.5266C35.0616 35.3689 35.0108 35.1875 35.0112 35.0026V29.0026H9.28125C11.9534 25.2481 15.1337 21.8826 18.7312 19.0026H35.0112V13.0026C35.0108 12.8177 35.0616 12.6363 35.1579 12.4786C35.2543 12.3208 35.3926 12.1929 35.5573 12.109C35.7221 12.025 35.9068 11.9884 36.0911 12.0032C36.2754 12.018 36.452 12.0835 36.6012 12.1926L51.6012 23.1926C51.7293 23.2853 51.8336 23.4071 51.9054 23.5479C51.9773 23.6887 52.0148 23.8445 52.0148 24.0026C52.0148 24.1607 51.9773 24.3165 51.9054 24.4573C51.8336 24.5981 51.7293 24.7199 51.6012 24.8126Z" fill="#15BA5C"/>
<path d="M39.0117 54C39.0117 54.2652 38.9064 54.5196 38.7188 54.7071C38.5313 54.8946 38.2769 55 38.0117 55C37.5617 55 37.7117 55 34.1017 52.32L31.7217 54.71C31.6288 54.8037 31.5182 54.8781 31.3963 54.9289C31.2744 54.9797 31.1437 55.0058 31.0117 55.0058C30.8797 55.0058 30.749 54.9797 30.6271 54.9289C30.5053 54.8781 30.3947 54.8037 30.3017 54.71L27.9217 52.32L24.6117 54.8C24.4631 54.9114 24.2865 54.9793 24.1015 54.996C23.9166 55.0126 23.7306 54.9775 23.5645 54.8944C23.3984 54.8114 23.2587 54.6837 23.1611 54.5257C23.0634 54.3678 23.0117 54.1857 23.0117 54V39H39.0117V54Z" fill="white"/>
<path d="M80.0117 84H76.0117C75.7465 84 75.4921 83.8946 75.3046 83.7071C75.1171 83.5196 75.0117 83.2652 75.0117 83C75.0117 82.7348 75.1171 82.4804 75.3046 82.2929C75.4921 82.1054 75.7465 82 76.0117 82H80.0117C80.2769 82 80.5313 82.1054 80.7188 82.2929C80.9064 82.4804 81.0117 82.7348 81.0117 83C81.0117 83.2652 80.9064 83.5196 80.7188 83.7071C80.5313 83.8946 80.2769 84 80.0117 84Z" fill="white"/>
<path d="M97.0117 89H102.012V83H97.0117C96.2161 83 95.453 83.3161 94.8904 83.8787C94.3278 84.4413 94.0117 85.2044 94.0117 86C94.0117 86.7956 94.3278 87.5587 94.8904 88.1213C95.453 88.6839 96.2161 89 97.0117 89Z" fill="#319F43"/>
</svg>
