<svg width="766" height="282" viewBox="0 0 766 282" fill="none" xmlns="http://www.w3.org/2000/svg">
<path d="M-3.84375 -65.3589H765.088V62.7099L380.622 215.301L-3.84375 62.7099V-65.3589Z" fill="#15BA5C" fill-opacity="0.1"/>
<path d="M728.681 125.748C726.339 121.335 724.576 121.497 723.391 126.235C721.615 131.565 719.542 131.861 717.173 127.123C714.804 122.977 713.028 123.274 711.843 128.011C710.067 133.341 707.994 133.637 705.625 128.9" stroke="#8750DE" stroke-width="3.43131" stroke-linecap="round"/>
<path d="M738.048 91.2872C740.335 93.1396 743.441 93.096 744.985 91.1896C746.529 89.2833 745.926 86.2362 743.638 84.3837C741.351 82.5312 738.245 82.5749 736.701 84.4812C735.157 86.3876 735.76 89.4347 738.048 91.2872Z" fill="#F27932"/>
<path d="M672.363 97.6076L682.134 98.4959L680.357 111.821L670.586 110.044L672.363 97.6076Z" fill="#D73F28"/>
<path d="M624.48 126.922L622.703 118.038L631.586 123.368L624.48 126.922Z" fill="white"/>
<path d="M735.03 52.6504C735.797 48.302 733.285 44.2245 729.42 43.543C725.554 42.8614 721.8 45.834 721.033 50.1823C720.266 54.5306 722.778 58.6082 726.643 59.2897C730.508 59.9712 734.263 56.9987 735.03 52.6504Z" fill="#D73F28"/>
<path d="M637.887 56.7452H655.653V68.2933H637.887V56.7452Z" fill="white"/>
<path d="M590.881 89.6138L589.992 79.8423L605.982 77.1774L606.87 86.9488L590.881 89.6138Z" fill="#8750DE"/>
<path d="M761.934 2.04147L759.618 -0.170927L761.11 -3.51594L757.302 -2.38332L754.986 -4.59572L755.244 -0.942196L752.157 1.21949L755.502 2.71133L756.788 5.64429L759.155 2.45353L761.934 2.04147Z" fill="#8750DE"/>
<path d="M553.115 105.973C553.422 108.901 555.254 111.108 557.205 110.903C559.157 110.697 560.49 108.158 560.182 105.23C559.874 102.303 558.043 100.096 556.091 100.301C554.14 100.506 552.807 103.046 553.115 105.973Z" fill="#D73F28"/>
<path d="M660.986 19.2553C664.303 20.1441 667.61 18.5597 668.371 15.7164C669.133 12.8731 667.062 9.84758 663.745 8.95874C660.427 8.0699 657.121 9.65431 656.359 12.4976C655.597 15.3409 657.668 18.3664 660.986 19.2553Z" fill="#F27932"/>
<path d="M568.973 24.484C571.062 28.9523 572.996 28.8176 574.772 24.0799C577.141 19.3423 579.214 19.3423 580.99 24.0799C582.767 28.8176 584.84 28.8176 587.209 24.0799C588.985 19.3423 590.762 19.3423 592.539 24.0799" stroke="#4CD964" stroke-width="2.57348" stroke-linecap="round"/>
<path d="M546.611 63.8531L530.621 61.1881L533.286 45.1985L548.387 47.8634L546.611 63.8531Z" fill="#D73F28"/>
<path d="M174.523 109.807L187.391 124.39" stroke="#E6F2FF" stroke-width="3.43131" stroke-linecap="round"/>
<path d="M187.265 86.6447L163.246 89.2181" stroke="#4CD964" stroke-width="3.43131" stroke-linecap="round"/>
<path d="M145.199 101.229L147.773 93.5081L162.356 97.7972L160.64 105.518L145.199 101.229Z" fill="#F27932"/>
<path d="M109.741 118.385L104.594 104.66L119.177 106.375L109.741 118.385Z" fill="#4CD964"/>
<path d="M194.334 60.0535L204.628 72.9209L189.188 76.3522L194.334 60.0535Z" fill="#8750DE"/>
<path d="M46.7724 112.963C44.5108 108.701 42.8081 108.858 41.6644 113.433C39.9487 118.58 37.9471 118.866 35.6596 114.29C33.372 110.287 31.6564 110.573 30.5126 115.148C28.7969 120.295 26.7954 120.581 24.5078 116.006" stroke="#8750DE" stroke-width="3.43131" stroke-linecap="round"/>
<path d="M98.4595 72.9196L93.3125 66.057L103.606 66.9148L98.4595 72.9196Z" fill="#8750DE"/>
<path d="M55.8202 79.6853C58.0293 81.4742 61.0286 81.4321 62.5194 79.5912C64.0101 77.7502 63.4278 74.8077 61.2187 73.0188C59.0096 71.2299 56.0103 71.2721 54.5195 73.113C53.0288 74.9539 53.6111 77.8964 55.8202 79.6853Z" fill="#E6F2FF"/>
<path d="M-7.61247 85.7871L1.82362 86.645L0.107971 99.5124L-9.32812 97.7967L-7.61247 85.7871Z" fill="#4CD964"/>
<path d="M127.709 32.2067C126.601 28.5822 123.866 26.2054 121.601 26.8979C119.335 27.5905 118.397 31.0902 119.505 34.7147C120.613 38.3392 123.348 40.716 125.613 40.0234C127.879 39.3309 128.817 35.8312 127.709 32.2067Z" fill="white"/>
<path d="M52.9042 42.3722C53.6446 38.1731 51.219 34.2356 47.4865 33.5774C43.754 32.9193 40.1279 35.7898 39.3875 39.9889C38.6471 44.188 41.0727 48.1256 44.8052 48.7837C48.5378 49.4419 52.1638 46.5713 52.9042 42.3722Z" fill="#4CD964"/>
<path d="M458.763 73.5639C459.114 72.4833 460.642 72.4833 460.994 73.5639L462.511 78.2352C462.668 78.7184 463.119 79.0456 463.627 79.0456L468.538 79.0456C469.675 79.0456 470.147 80.4995 469.228 81.1673L465.254 84.0543C464.843 84.353 464.671 84.8824 464.828 85.3656L466.346 90.0369C466.697 91.1174 465.46 92.016 464.541 91.3482L460.567 88.4612C460.156 88.1625 459.6 88.1625 459.189 88.4612L455.215 91.3482C454.296 92.016 453.059 91.1174 453.41 90.0369L454.928 85.3656C455.085 84.8824 454.913 84.353 454.502 84.0543L450.528 81.1673C449.609 80.4995 450.082 79.0456 451.218 79.0456L456.129 79.0456C456.637 79.0456 457.088 78.7184 457.245 78.2352L458.763 73.5639Z" fill="#15BA5C"/>
<path d="M479.868 94.6732C480.219 93.5927 481.748 93.5927 482.099 94.6732L482.563 96.1028C482.72 96.586 483.171 96.9132 483.679 96.9132H485.182C486.318 96.9132 486.791 98.3671 485.871 99.0349L484.655 99.9184C484.244 100.217 484.072 100.746 484.229 101.23L484.694 102.659C485.045 103.74 483.808 104.638 482.889 103.971L481.673 103.087C481.262 102.788 480.705 102.788 480.294 103.087L479.078 103.971C478.159 104.638 476.922 103.74 477.273 102.659L477.738 101.23C477.895 100.746 477.723 100.217 477.312 99.9184L476.096 99.0349C475.176 98.3671 475.649 96.9132 476.785 96.9132H478.288C478.796 96.9132 479.247 96.586 479.404 96.1028L479.868 94.6732Z" fill="#C2EBD3"/>
<path d="M508.614 203.686C508.965 202.606 510.494 202.606 510.845 203.686L512.363 208.357C512.52 208.841 512.97 209.168 513.478 209.168L518.39 209.168C519.526 209.168 519.999 210.622 519.079 211.29L515.106 214.177C514.695 214.475 514.523 215.005 514.68 215.488L516.197 220.159C516.549 221.24 515.312 222.138 514.393 221.47L510.419 218.583C510.008 218.285 509.451 218.285 509.04 218.583L505.067 221.47C504.147 222.138 502.911 221.24 503.262 220.159L504.78 215.488C504.937 215.005 504.765 214.475 504.353 214.177L500.38 211.29C499.461 210.622 499.933 209.168 501.069 209.168L505.981 209.168C506.489 209.168 506.939 208.841 507.096 208.357L508.614 203.686Z" fill="#15BA5C"/>
<path d="M529.72 224.796C530.071 223.715 531.599 223.715 531.95 224.796L532.415 226.225C532.572 226.708 533.022 227.036 533.53 227.036H535.034C536.17 227.036 536.642 228.489 535.723 229.157L534.507 230.041C534.096 230.339 533.924 230.869 534.081 231.352L534.545 232.782C534.896 233.862 533.66 234.761 532.74 234.093L531.524 233.209C531.113 232.911 530.557 232.911 530.146 233.209L528.93 234.093C528.01 234.761 526.774 233.862 527.125 232.782L527.589 231.352C527.746 230.869 527.574 230.339 527.163 230.041L525.947 229.157C525.028 228.489 525.5 227.036 526.637 227.036H528.14C528.648 227.036 529.098 226.708 529.255 226.225L529.72 224.796Z" fill="#C2EBD3"/>
<path d="M330.329 50.7502C330.68 49.6697 332.209 49.6697 332.56 50.7502L334.078 55.4215C334.235 55.9047 334.685 56.2319 335.193 56.2319L340.105 56.2319C341.241 56.2319 341.713 57.6858 340.794 58.3537L336.821 61.2406C336.41 61.5393 336.238 62.0687 336.395 62.5519L337.912 67.2232C338.263 68.3038 337.027 69.2023 336.107 68.5345L332.134 65.6475C331.723 65.3488 331.166 65.3488 330.755 65.6475L326.781 68.5345C325.862 69.2023 324.626 68.3038 324.977 67.2232L326.494 62.5519C326.651 62.0687 326.479 61.5393 326.068 61.2406L322.095 58.3537C321.176 57.6858 321.648 56.2319 322.784 56.2319L327.696 56.2319C328.204 56.2319 328.654 55.9047 328.811 55.4215L330.329 50.7502Z" fill="#15BA5C"/>
<path d="M351.438 71.8596C351.789 70.779 353.318 70.779 353.669 71.8596L354.134 73.2891C354.291 73.7724 354.741 74.0995 355.249 74.0995H356.752C357.888 74.0995 358.361 75.5534 357.442 76.2213L356.226 77.1048C355.815 77.4034 355.643 77.9328 355.8 78.4161L356.264 79.8456C356.615 80.9262 355.378 81.8247 354.459 81.1569L353.243 80.2734C352.832 79.9747 352.275 79.9747 351.864 80.2734L350.648 81.1569C349.729 81.8247 348.492 80.9262 348.844 79.8456L349.308 78.4161C349.465 77.9328 349.293 77.4034 348.882 77.1048L347.666 76.2213C346.747 75.5534 347.219 74.0995 348.355 74.0995H349.858C350.366 74.0995 350.817 73.7724 350.974 73.2891L351.438 71.8596Z" fill="#C2EBD3"/>
<path d="M240.766 187.632C241.118 186.552 242.646 186.552 242.997 187.632L244.515 192.303C244.672 192.787 245.123 193.114 245.631 193.114L250.542 193.114C251.678 193.114 252.151 194.568 251.232 195.236L247.258 198.123C246.847 198.421 246.675 198.951 246.832 199.434L248.35 204.105C248.701 205.186 247.464 206.084 246.545 205.416L242.571 202.529C242.16 202.231 241.604 202.231 241.193 202.529L237.219 205.416C236.3 206.084 235.063 205.186 235.414 204.105L236.932 199.434C237.089 198.951 236.917 198.421 236.506 198.123L232.532 195.236C231.613 194.568 232.085 193.114 233.222 193.114L238.133 193.114C238.641 193.114 239.092 192.787 239.249 192.303L240.766 187.632Z" fill="#15BA5C"/>
<path d="M261.872 208.742C262.223 207.661 263.752 207.661 264.103 208.741L264.567 210.171C264.724 210.654 265.175 210.981 265.683 210.981H267.186C268.322 210.981 268.794 212.435 267.875 213.103L266.659 213.987C266.248 214.285 266.076 214.815 266.233 215.298L266.698 216.728C267.049 217.808 265.812 218.707 264.893 218.039L263.677 217.155C263.266 216.857 262.709 216.857 262.298 217.155L261.082 218.039C260.163 218.707 258.926 217.808 259.277 216.728L259.742 215.298C259.899 214.815 259.727 214.285 259.316 213.987L258.099 213.103C257.18 212.435 257.653 210.981 258.789 210.981H260.292C260.8 210.981 261.25 210.654 261.407 210.171L261.872 208.742Z" fill="#C2EBD3"/>
<circle cx="382.106" cy="195.296" r="85.7232" fill="white"/>
<circle cx="382.106" cy="195.296" r="85.2599" stroke="#774CF1" stroke-opacity="0.2" stroke-width="0.926738"/>
<circle cx="382.103" cy="195.297" r="71.2162" fill="#1FC16B"/>
<path d="M360.171 195.526C359.979 195.297 359.743 195.108 359.478 194.971C359.212 194.835 358.922 194.752 358.624 194.729C358.326 194.706 358.027 194.742 357.743 194.836C357.46 194.93 357.198 195.079 356.972 195.276C356.747 195.472 356.564 195.712 356.432 195.98C356.301 196.248 356.224 196.54 356.207 196.838C356.19 197.136 356.232 197.435 356.332 197.717C356.431 197.998 356.586 198.257 356.787 198.479L360.171 195.526ZM367.892 207.783L366.199 209.26C366.41 209.501 366.67 209.695 366.962 209.828C367.254 209.96 367.571 210.029 367.892 210.029C368.212 210.029 368.529 209.96 368.821 209.828C369.113 209.695 369.373 209.501 369.584 209.26L367.892 207.783ZM393.114 182.307C393.315 182.085 393.47 181.826 393.569 181.545C393.669 181.263 393.711 180.964 393.694 180.666C393.676 180.368 393.6 180.076 393.468 179.808C393.337 179.539 393.153 179.3 392.928 179.104C392.703 178.907 392.441 178.758 392.157 178.664C391.874 178.57 391.574 178.534 391.276 178.557C390.979 178.58 390.688 178.663 390.423 178.799C390.157 178.936 389.922 179.125 389.73 179.354L393.114 182.307ZM377.963 192.83C377.586 193.281 377.4 193.862 377.446 194.448C377.491 195.034 377.765 195.579 378.208 195.965C378.651 196.352 379.228 196.549 379.815 196.515C380.402 196.481 380.952 196.218 381.347 195.783L377.963 192.83ZM375.465 202.522C375.666 202.3 375.821 202.041 375.921 201.76C376.02 201.478 376.063 201.179 376.045 200.881C376.028 200.583 375.951 200.291 375.82 200.023C375.688 199.755 375.505 199.515 375.28 199.319C375.055 199.122 374.793 198.973 374.509 198.879C374.225 198.785 373.926 198.749 373.628 198.772C373.33 198.795 373.04 198.878 372.774 199.014C372.509 199.151 372.273 199.34 372.081 199.569L375.465 202.522ZM356.787 198.479L366.199 209.26L369.584 206.307L360.171 195.526L356.787 198.479ZM369.584 209.26L375.465 202.522L372.081 199.569L366.199 206.307L369.584 209.26ZM381.347 195.783L387.232 189.045L383.848 186.092L377.963 192.83L381.347 195.783ZM387.232 189.045L393.114 182.307L389.73 179.354L383.848 186.092L387.232 189.045Z" fill="white"/>
<path d="M406.399 181.019L393.563 194.496M379.445 206.286L380.73 207.972L387.148 201.234" stroke="white" stroke-width="4.49223" stroke-linecap="round" stroke-linejoin="round"/>
</svg>
