<svg width="84" height="68" viewBox="0 0 84 68" fill="none" xmlns="http://www.w3.org/2000/svg">
<path d="M76.9494 28.5544L42.4494 6.99194C42.2209 6.84915 41.9569 6.77344 41.6875 6.77344C41.4181 6.77344 41.1541 6.84915 40.9256 6.99194L6.42563 28.5544C6.21847 28.6839 6.04772 28.8641 5.92951 29.0778C5.81129 29.2916 5.74951 29.532 5.75 29.7763V65.7138C5.75 66.0951 5.90145 66.4607 6.17104 66.7303C6.44062 66.9999 6.80625 67.1513 7.1875 67.1513H76.1875C76.5688 67.1513 76.9344 66.9999 77.204 66.7303C77.4736 66.4607 77.625 66.0951 77.625 65.7138V29.7763C77.6255 29.532 77.5637 29.2916 77.4455 29.0778C77.3273 28.8641 77.1565 28.6839 76.9494 28.5544Z" fill="#1C1B20"/>
<path d="M82.6994 25.3748L42.4494 0.218503C42.2209 0.0757126 41.9569 0 41.6875 0C41.4181 0 41.1541 0.0757126 40.9256 0.218503L0.675628 25.3748C0.470522 25.5029 0.301074 25.6808 0.182975 25.8919C0.0648752 26.1029 0.0019421 26.3404 2.88628e-06 26.5823V33.3672C-0.000511733 33.6241 0.0677993 33.8764 0.197831 34.0979C0.327863 34.3194 0.514865 34.502 0.739388 34.6267C0.963911 34.7515 1.21775 34.8138 1.47451 34.8072C1.73127 34.8005 1.98157 34.7253 2.19938 34.5891L41.6875 9.90725L81.1756 34.5891C81.3934 34.7253 81.6437 34.8005 81.9005 34.8072C82.1572 34.8138 82.4111 34.7515 82.6356 34.6267C82.8601 34.502 83.0471 34.3194 83.1772 34.0979C83.3072 33.8764 83.3755 33.6241 83.375 33.3672V26.5823C83.3731 26.3404 83.3101 26.1029 83.192 25.8919C83.0739 25.6808 82.9045 25.5029 82.6994 25.3748Z" fill="#15BA5C"/>
<path d="M66.125 35.5234H17.25C16.4561 35.5234 15.8125 36.167 15.8125 36.9609V65.7109C15.8125 66.5048 16.4561 67.1484 17.25 67.1484H66.125C66.9189 67.1484 67.5625 66.5048 67.5625 65.7109V36.9609C67.5625 36.167 66.9189 35.5234 66.125 35.5234Z" fill="#1C1B20"/>
<path d="M66.125 44.1484H51.75C50.9561 44.1484 50.3125 44.792 50.3125 45.5859V55.6484C50.3125 56.4423 50.9561 57.0859 51.75 57.0859H66.125C66.9189 57.0859 67.5625 56.4423 67.5625 55.6484V45.5859C67.5625 44.792 66.9189 44.1484 66.125 44.1484Z" fill="white"/>
<path d="M51.0312 25.4609H32.3438V28.3359H51.0312V25.4609Z" fill="white"/>
<path d="M51.75 54.2109H37.375C36.5811 54.2109 35.9375 54.8545 35.9375 55.6484V65.7109C35.9375 66.5048 36.5811 67.1484 37.375 67.1484H51.75C52.5439 67.1484 53.1875 66.5048 53.1875 65.7109V55.6484C53.1875 54.8545 52.5439 54.2109 51.75 54.2109Z" fill="white"/>
<path d="M66.125 54.2109H51.75C50.9561 54.2109 50.3125 54.8545 50.3125 55.6484V65.7109C50.3125 66.5048 50.9561 67.1484 51.75 67.1484H66.125C66.9189 67.1484 67.5625 66.5048 67.5625 65.7109V55.6484C67.5625 54.8545 66.9189 54.2109 66.125 54.2109Z" fill="#15BA5C"/>
</svg>
