<svg width="110" height="110" viewBox="0 0 110 110" fill="none" xmlns="http://www.w3.org/2000/svg">
<path d="M50.0107 108C77.625 108 100.011 85.6142 100.011 58C100.011 30.3858 77.625 8 50.0107 8C22.3965 8 0.0107422 30.3858 0.0107422 58C0.0107422 85.6142 22.3965 108 50.0107 108Z" fill="#15BA5C" fill-opacity="0.1"/>
<path d="M13.0107 6C14.6676 6 16.0107 4.65685 16.0107 3C16.0107 1.34315 14.6676 0 13.0107 0C11.3539 0 10.0107 1.34315 10.0107 3C10.0107 4.65685 11.3539 6 13.0107 6Z" fill="#FF4D69"/>
<path d="M84.0107 10C85.6676 10 87.0107 8.65685 87.0107 7C87.0107 5.34315 85.6676 4 84.0107 4C82.3539 4 81.0107 5.34315 81.0107 7C81.0107 8.65685 82.3539 10 84.0107 10Z" fill="#15BA5C"/>
<path d="M105.011 47C106.668 47 108.011 45.6569 108.011 44C108.011 42.3431 106.668 41 105.011 41C103.354 41 102.011 42.3431 102.011 44C102.011 45.6569 103.354 47 105.011 47Z" fill="#FFA100"/>
<path d="M6.01074 101C7.6676 101 9.01074 99.6569 9.01074 98C9.01074 96.3431 7.6676 95 6.01074 95C4.35389 95 3.01074 96.3431 3.01074 98C3.01074 99.6569 4.35389 101 6.01074 101Z" fill="#15BA5C"/>
<path d="M68.0109 43V97H18.7409C10.3126 90.2487 4.29653 80.9501 1.59267 70.4952C-1.11119 60.0403 -0.357543 48.991 3.74088 39H64.0109C65.0717 39 66.0892 39.4214 66.8393 40.1716C67.5894 40.9217 68.0109 41.9391 68.0109 43Z" fill="#319F43"/>
<path d="M61.0107 84H49.0107C47.9062 84 47.0107 84.8954 47.0107 86V90C47.0107 91.1046 47.9062 92 49.0107 92H61.0107C62.1153 92 63.0107 91.1046 63.0107 90V86C63.0107 84.8954 62.1153 84 61.0107 84Z" fill="white"/>
<path d="M56.0107 81H62.0107C62.276 81 62.5303 80.8946 62.7178 80.7071C62.9054 80.5196 63.0107 80.2652 63.0107 80C63.0107 79.7348 62.9054 79.4804 62.7178 79.2929C62.5303 79.1054 62.276 79 62.0107 79H56.0107C55.7455 79 55.4912 79.1054 55.3036 79.2929C55.1161 79.4804 55.0107 79.7348 55.0107 80C55.0107 80.2652 55.1161 80.5196 55.3036 80.7071C55.4912 80.8946 55.7455 81 56.0107 81ZM56.0107 76H62.0107C62.276 76 62.5303 75.8946 62.7178 75.7071C62.9054 75.5196 63.0107 75.2652 63.0107 75C63.0107 74.7348 62.9054 74.4804 62.7178 74.2929C62.5303 74.1054 62.276 74 62.0107 74H56.0107C55.7455 74 55.4912 74.1054 55.3036 74.2929C55.1161 74.4804 55.0107 74.7348 55.0107 75C55.0107 75.2652 55.1161 75.5196 55.3036 75.7071C55.4912 75.8946 55.7455 76 56.0107 76Z" fill="white"/>
<path d="M102.011 79V97H68.0107V59H92.0107L94.0107 63L91.2707 71.81L102.011 79Z" fill="#15BA5C"/>
<path d="M68.0107 45V59H92.0107L91.1207 57.62C88.633 53.7501 85.2134 50.5668 81.1757 48.3618C77.138 46.1569 72.6113 45.0009 68.0107 45Z" fill="#15BA5C" fill-opacity="0.4"/>
<path d="M102.011 79H75.0107V63H94.0107L102.011 79Z" fill="white"/>
<path d="M102.011 97V98C102.011 98.7956 101.695 99.5587 101.133 100.121C100.57 100.684 99.8069 101 99.0112 101H24.5112C22.4969 99.8029 20.5689 98.4663 18.7412 97H102.011Z" fill="#15BA5C" fill-opacity="0.4"/>
<path d="M83.0107 108C87.9813 108 92.0107 103.971 92.0107 99C92.0107 94.0294 87.9813 90 83.0107 90C78.0402 90 74.0107 94.0294 74.0107 99C74.0107 103.971 78.0402 108 83.0107 108Z" fill="#319F43"/>
<path d="M83.0107 103C85.2199 103 87.0107 101.209 87.0107 99C87.0107 96.7909 85.2199 95 83.0107 95C80.8016 95 79.0107 96.7909 79.0107 99C79.0107 101.209 80.8016 103 83.0107 103Z" fill="white"/>
<path d="M22.9511 99.9965C18.7838 97.3087 15.0367 94.0199 11.8311 90.2365C13.2422 89.8844 14.7176 89.8795 16.131 90.2223C17.5444 90.565 18.8537 91.2452 19.9468 92.2046C21.0399 93.164 21.8842 94.374 22.4074 95.731C22.9306 97.088 23.1171 98.5516 22.9511 99.9965Z" fill="#319F43"/>
<path d="M51.6012 24.8126L36.6012 35.8126C36.452 35.9217 36.2754 35.9872 36.0911 36.002C35.9068 36.0168 35.7221 35.9802 35.5573 35.8962C35.3926 35.8123 35.2543 35.6844 35.1579 35.5266C35.0616 35.3689 35.0108 35.1875 35.0112 35.0026V29.0026H9.28125C11.9534 25.2481 15.1337 21.8826 18.7312 19.0026H35.0112V13.0026C35.0108 12.8177 35.0616 12.6363 35.1579 12.4786C35.2543 12.3208 35.3926 12.1929 35.5573 12.109C35.7221 12.025 35.9068 11.9884 36.0911 12.0032C36.2754 12.018 36.452 12.0835 36.6012 12.1926L51.6012 23.1926C51.7293 23.2853 51.8336 23.4071 51.9054 23.5479C51.9773 23.6887 52.0148 23.8445 52.0148 24.0026C52.0148 24.1607 51.9773 24.3165 51.9054 24.4573C51.8336 24.5981 51.7293 24.7199 51.6012 24.8126Z" fill="#15BA5C"/>
<path d="M39.0107 54C39.0107 54.2652 38.9054 54.5196 38.7178 54.7071C38.5303 54.8946 38.276 55 38.0107 55C37.5607 55 37.7107 55 34.1007 52.32L31.7207 54.71C31.6278 54.8037 31.5172 54.8781 31.3953 54.9289C31.2735 54.9797 31.1428 55.0058 31.0107 55.0058C30.8787 55.0058 30.748 54.9797 30.6262 54.9289C30.5043 54.8781 30.3937 54.8037 30.3007 54.71L27.9207 52.32L24.6107 54.8C24.4622 54.9114 24.2855 54.9793 24.1005 54.996C23.9156 55.0126 23.7296 54.9775 23.5635 54.8944C23.3974 54.8114 23.2577 54.6837 23.1601 54.5257C23.0625 54.3678 23.0107 54.1857 23.0107 54V39H39.0107V54Z" fill="white"/>
<path d="M80.0107 84H76.0107C75.7455 84 75.4912 83.8946 75.3036 83.7071C75.1161 83.5196 75.0107 83.2652 75.0107 83C75.0107 82.7348 75.1161 82.4804 75.3036 82.2929C75.4912 82.1054 75.7455 82 76.0107 82H80.0107C80.276 82 80.5303 82.1054 80.7178 82.2929C80.9054 82.4804 81.0107 82.7348 81.0107 83C81.0107 83.2652 80.9054 83.5196 80.7178 83.7071C80.5303 83.8946 80.276 84 80.0107 84Z" fill="white"/>
<path d="M97.0107 89H102.011V83H97.0107C96.2151 83 95.452 83.3161 94.8894 83.8787C94.3268 84.4413 94.0107 85.2044 94.0107 86C94.0107 86.7956 94.3268 87.5587 94.8894 88.1213C95.452 88.6839 96.2151 89 97.0107 89Z" fill="#319F43"/>
</svg>
