<svg width="92" height="92" viewBox="0 0 92 92" fill="none" xmlns="http://www.w3.org/2000/svg">
<path d="M81.2619 37.5935L46.7619 16.031C46.5334 15.8882 46.2694 15.8125 46 15.8125C45.7306 15.8125 45.4666 15.8882 45.2381 16.031L10.7381 37.5935C10.531 37.723 10.3602 37.9031 10.242 38.1169C10.1238 38.3307 10.062 38.5711 10.0625 38.8154V74.7529C10.0625 75.1341 10.214 75.4998 10.4835 75.7693C10.7531 76.0389 11.1188 76.1904 11.5 76.1904H80.5C80.8813 76.1904 81.2469 76.0389 81.5165 75.7693C81.7861 75.4998 81.9375 75.1341 81.9375 74.7529V38.8154C81.938 38.5711 81.8762 38.3307 81.758 38.1169C81.6398 37.9031 81.469 37.723 81.2619 37.5935Z" fill="#1C1B20"/>
<path d="M87.0119 34.4138L46.7619 9.25757C46.5334 9.11478 46.2694 9.03906 46 9.03906C45.7306 9.03906 45.4666 9.11478 45.2381 9.25757L4.98813 34.4138C4.78302 34.542 4.61357 34.7199 4.49547 34.9309C4.37738 35.142 4.31444 35.3795 4.3125 35.6213V42.4063C4.31199 42.6632 4.3803 42.9155 4.51033 43.1369C4.64036 43.3584 4.82736 43.5411 5.05189 43.6658C5.27641 43.7905 5.53025 43.8528 5.78701 43.8462C6.04377 43.8396 6.29407 43.7643 6.51188 43.6282L46 18.9463L85.4881 43.6282C85.7059 43.7643 85.9562 43.8396 86.213 43.8462C86.4697 43.8528 86.7236 43.7905 86.9481 43.6658C87.1726 43.5411 87.3596 43.3584 87.4897 43.1369C87.6197 42.9155 87.688 42.6632 87.6875 42.4063V35.6213C87.6856 35.3795 87.6226 35.142 87.5045 34.9309C87.3864 34.7199 87.217 34.542 87.0119 34.4138Z" fill="#15BA5C"/>
<path d="M70.4375 44.5625H21.5625C20.7686 44.5625 20.125 45.2061 20.125 46V74.75C20.125 75.5439 20.7686 76.1875 21.5625 76.1875H70.4375C71.2314 76.1875 71.875 75.5439 71.875 74.75V46C71.875 45.2061 71.2314 44.5625 70.4375 44.5625Z" fill="#1C1B20"/>
<path d="M70.4375 53.1875H56.0625C55.2686 53.1875 54.625 53.8311 54.625 54.625V64.6875C54.625 65.4814 55.2686 66.125 56.0625 66.125H70.4375C71.2314 66.125 71.875 65.4814 71.875 64.6875V54.625C71.875 53.8311 71.2314 53.1875 70.4375 53.1875Z" fill="white"/>
<path d="M55.3438 34.5H36.6562V37.375H55.3438V34.5Z" fill="white"/>
<path d="M56.0625 63.25H41.6875C40.8936 63.25 40.25 63.8936 40.25 64.6875V74.75C40.25 75.5439 40.8936 76.1875 41.6875 76.1875H56.0625C56.8564 76.1875 57.5 75.5439 57.5 74.75V64.6875C57.5 63.8936 56.8564 63.25 56.0625 63.25Z" fill="white"/>
<path d="M70.4375 63.25H56.0625C55.2686 63.25 54.625 63.8936 54.625 64.6875V74.75C54.625 75.5439 55.2686 76.1875 56.0625 76.1875H70.4375C71.2314 76.1875 71.875 75.5439 71.875 74.75V64.6875C71.875 63.8936 71.2314 63.25 70.4375 63.25Z" fill="#15BA5C"/>
</svg>
