<svg width="23" height="21" viewBox="0 0 23 21" fill="none" xmlns="http://www.w3.org/2000/svg">
<path d="M0.247314 16.1029H22.7213V20.5977H0.247314V16.1029ZM5.02303 4.86589H8.1132V3.74219H4.74211V0.371094H13.7317V3.74219H10.3606V4.86589H18.0017C19.1254 4.86589 20.2491 5.98958 20.4739 7.11328L21.0357 14.9792H1.93286L2.5509 7.11328C2.5509 5.98958 3.67459 4.86589 5.02303 4.86589ZM12.608 7.11328V9.36068H18.2265V7.11328H12.608ZM4.74211 7.11328V8.23698H6.9895V7.11328H4.74211ZM8.1132 7.11328V8.23698H10.3606V7.11328H8.1132ZM4.74211 9.36068V10.4844H6.9895V9.36068H4.74211ZM8.1132 9.36068V10.4844H10.3606V9.36068H8.1132ZM4.74211 11.6081V12.7318H6.9895V11.6081H4.74211ZM8.1132 11.6081V12.7318H10.3606V11.6081H8.1132ZM5.8658 1.49479V2.61849H12.608V1.49479H5.8658Z" fill="#15BA5C"/>
</svg>
