<svg width="24" height="24" viewBox="0 0 24 24" fill="none" xmlns="http://www.w3.org/2000/svg">
<path fill-rule="evenodd" clip-rule="evenodd" d="M12.0412 3.75009C11.2513 3.7458 10.4683 3.89778 9.73733 4.19729C9.00612 4.4969 8.34141 4.93821 7.78148 5.49582C7.22156 6.05342 6.77748 6.71629 6.47484 7.44625C6.17219 8.17621 6.01695 8.95884 6.01806 9.74905L6.01806 9.7501L6.01806 10.5001C6.01806 13.9619 5.29223 16.0467 4.5957 17.2501H19.4029C18.7064 16.0467 17.9806 13.9618 17.9806 10.5001V9.83448C17.9806 6.51122 15.3279 3.77538 12.0412 3.75009ZM9.16861 2.80929C10.0829 2.43466 11.0623 2.24462 12.0504 2.25012L12.0519 2.25012C16.1898 2.28147 19.4806 5.71423 19.4806 9.83448V10.5001C19.4806 13.7501 20.1607 15.5651 20.7015 16.4993L20.702 16.5001C20.8334 16.7277 20.9027 16.9859 20.9029 17.2488C20.9032 17.5116 20.8343 17.7699 20.7033 17.9978C20.5723 18.2257 20.3836 18.4151 20.1563 18.5472C19.9291 18.6792 19.6711 18.7492 19.4082 18.7501L19.4056 18.7501H4.59306L4.59042 18.7501C4.32757 18.7492 4.06957 18.6792 3.84227 18.5472C3.61498 18.4151 3.42637 18.2257 3.29534 17.9978C3.16432 17.7699 3.09547 17.5116 3.0957 17.2488C3.09594 16.9859 3.16524 16.7277 3.29667 16.5001L3.29712 16.4993C3.83796 15.5651 4.51806 13.7501 4.51806 10.5001V9.7506" fill="#0654D0"/>
<path fill-rule="evenodd" clip-rule="evenodd" d="M9 17.25C9.41421 17.25 9.75 17.5858 9.75 18V18.75C9.75 19.3467 9.98705 19.919 10.409 20.341C10.831 20.7629 11.4033 21 12 21C12.5967 21 13.169 20.7629 13.591 20.341C14.0129 19.919 14.25 19.3467 14.25 18.75V18C14.25 17.5858 14.5858 17.25 15 17.25C15.4142 17.25 15.75 17.5858 15.75 18V18.75C15.75 19.7446 15.3549 20.6984 14.6516 21.4016C13.9484 22.1049 12.9946 22.5 12 22.5C11.0054 22.5 10.0516 22.1049 9.34835 21.4016C8.64509 20.6984 8.25 19.7446 8.25 18.75V18C8.25 17.5858 8.58579 17.25 9 17.25Z" fill="#0654D0"/>
</svg>
