<svg width="296" height="278" viewBox="0 0 296 278" fill="none" xmlns="http://www.w3.org/2000/svg">
<circle cx="147.844" cy="148.844" r="120.656" fill="#ECF6EF"/>
<circle cx="34.75" cy="67.375" r="7.5625" fill="#ECF6EF"/>
<circle cx="189.781" cy="14.0938" r="14.0938" fill="#ECF6EF"/>
<circle cx="46.0938" cy="245.094" r="13.4062" fill="#ECF6EF"/>
<circle cx="277.094" cy="213.469" r="13.4062" fill="#ECF6EF"/>
<circle cx="250.969" cy="228.594" r="6.53125" fill="#ECF6EF"/>
<path d="M154.736 34.0567C154.338 33.9719 154.338 33.4031 154.736 33.3183L160.763 32.0368C160.908 32.0059 161.021 31.8927 161.053 31.7476L162.35 25.7636C162.436 25.367 163.002 25.367 163.088 25.7636L164.386 31.7476C164.417 31.8927 164.531 32.0059 164.676 32.0368L170.703 33.3183C171.101 33.4031 171.101 33.9719 170.703 34.0567L164.676 35.3382C164.531 35.3691 164.417 35.4823 164.386 35.6274L163.088 41.6114C163.002 42.008 162.436 42.008 162.35 41.6114L161.053 35.6274C161.021 35.4823 160.908 35.3691 160.763 35.3382L154.736 34.0567Z" fill="#8ECEA3"/>
<path d="M17.0282 157.178C17.1821 156.451 18.2196 156.451 18.3734 157.178L20.6716 168.035C20.7276 168.3 20.9336 168.507 21.1979 168.564L31.9432 170.905C32.6647 171.062 32.6647 172.092 31.9432 172.249L21.1979 174.59C20.9336 174.647 20.7276 174.854 20.6716 175.119L18.3734 185.976C18.2196 186.703 17.1821 186.703 17.0282 185.976L14.7301 175.119C14.6741 174.854 14.4681 174.647 14.2038 174.59L3.45853 172.249C2.73698 172.092 2.73698 171.062 3.45853 170.905L14.2038 168.564C14.4681 168.507 14.6741 168.3 14.7301 168.035L17.0282 157.178Z" fill="#8ECEA3"/>
<path d="M255.674 70.5526C255.828 69.8257 256.866 69.8257 257.02 70.5526L258.36 76.8865C258.416 77.1512 258.622 77.3583 258.887 77.4159L265.173 78.7854C265.895 78.9426 265.895 79.9717 265.173 80.1289L258.887 81.4984C258.622 81.556 258.416 81.7632 258.36 82.0278L257.02 88.3618C256.866 89.0886 255.828 89.0886 255.674 88.3618L254.334 82.0278C254.278 81.7632 254.072 81.556 253.808 81.4984L247.521 80.1289C246.799 79.9717 246.799 78.9426 247.521 78.7854L253.808 77.4159C254.072 77.3583 254.278 77.1512 254.334 76.8865L255.674 70.5526Z" fill="#8ECEA3"/>
<path d="M283.39 172.102L285.495 182.048L295.3 184.184L285.495 186.32L283.39 196.266L281.285 186.32L271.48 184.184L281.285 182.048L283.39 172.102Z" fill="white"/>
<path d="M216.25 94.1875L53.6562 156.406L88.375 253L109.344 262.281L135.469 267.781L161.937 266.75L177.406 264L191.156 259.875L213.844 248.188L233.094 233.063L234.58 231.141C242.969 220.296 250.408 208.748 256.812 196.625L216.25 94.1875Z" fill="url(#paint0_linear_456_102455)"/>
<path d="M66.0312 128.906L48.8437 119.281L198.031 62.9063L190.125 82.5L195.969 100.719L72.5625 147.813L66.0312 128.906Z" fill="#BDE4CB"/>
<path d="M87.6875 252.656C102.731 260.348 119.018 265.315 135.794 267.328L136.213 267.379L148.173 267.379C157.132 267.379 166.066 266.425 174.823 264.535L177.788 263.894C187.152 261.873 196.192 258.572 204.654 254.084C211.257 250.582 217.465 246.381 223.171 241.554L225.022 239.987C229.974 235.797 234.568 231.203 238.758 226.251C244.624 219.318 249.663 211.725 253.773 203.627L257.5 196.281" stroke="#8ECEA3" stroke-width="2.75"/>
<path d="M52.3359 154.977L88.3737 253.325" stroke="#8ECEA3" stroke-width="2.75"/>
<path d="M217.68 94.1328L257.215 197.435" stroke="#8ECEA3" stroke-width="2.75"/>
<path d="M46.1496 119.569L200.145 61.703" stroke="#8ECEA3" stroke-width="2.75"/>
<path d="M51.5401 156.746L215.514 93.5094L191.341 82.2832C190.647 81.9608 190.35 81.1337 190.68 80.4432L199.098 62.8283" stroke="#8ECEA3" stroke-width="2.75"/>
<path d="M47.5337 119.093L64.8672 128.386C65.5261 128.739 65.782 129.554 65.4432 130.221L52.3396 156.005" stroke="#8ECEA3" stroke-width="2.75"/>
<path d="M46.8359 117.852L58.0047 145.77" stroke="#8ECEA3" stroke-width="2.75"/>
<path d="M65.6875 129.938L72.5625 149.187" stroke="#8ECEA3" stroke-width="2.75"/>
<path d="M190.812 81.8125L197.688 101.75" stroke="#8ECEA3" stroke-width="2.75"/>
<path d="M199.219 63.1484L209.087 90.3474" stroke="#8ECEA3" stroke-width="2.75"/>
<circle cx="116.906" cy="147.469" r="7.21875" fill="#BDE4CB"/>
<circle cx="106.594" cy="110.344" r="5.15625" fill="#ECF6EF"/>
<circle cx="162.281" cy="130.281" r="7.21875" fill="#BDE4CB"/>
<circle cx="138.219" cy="98.6562" r="5.15625" fill="#ECF6EF"/>
<defs>
<linearGradient id="paint0_linear_456_102455" x1="155.234" y1="94.1875" x2="155.234" y2="267.781" gradientUnits="userSpaceOnUse">
<stop stop-color="#ECF6EF"/>
<stop offset="1" stop-color="#C8EAD4"/>
</linearGradient>
</defs>
</svg>
