<svg width="57" height="57" viewBox="0 0 57 57" fill="none" xmlns="http://www.w3.org/2000/svg">
<path d="M20.3312 26.7188L6.08119 12.4688L3.5625 14.9874L15.2938 26.7188H3.5625V28.5C3.5625 35.1138 6.18984 41.4568 10.8665 46.1335C15.5432 50.8102 21.8862 53.4375 28.5 53.4375C35.1138 53.4375 41.4568 50.8102 46.1335 46.1335C50.8102 41.4568 53.4375 35.1138 53.4375 28.5V26.7188H20.3312ZM28.5 49.875C23.1414 49.8679 17.9804 47.8512 14.0367 44.2234C10.0929 40.5956 7.6533 35.6206 7.19981 30.2812H49.802C49.3484 35.6209 46.9086 40.5962 42.9644 44.224C39.0203 47.8519 33.8589 49.8684 28.5 49.875Z" fill="#15BA5C"/>
<path d="M39.1875 14.25C38.237 14.2512 37.2929 14.4046 36.3909 14.7042C35.0666 12.9112 33.341 11.453 31.3522 10.4462C29.3634 9.43948 27.1666 8.91209 24.9375 8.90625C21.7717 8.8976 18.6946 9.95132 16.1987 11.8988L7.86244 3.5625L5.34375 6.08119L16.1203 16.8578L17.3797 15.5984C18.3699 14.6028 19.5477 13.8136 20.845 13.2764C22.1424 12.7392 23.5334 12.4647 24.9375 12.4688C26.5425 12.4732 28.126 12.8378 29.5712 13.5358C31.0165 14.2337 32.2866 15.2472 33.288 16.5015C32.9075 16.8333 32.5559 17.1967 32.2371 17.5881C31.7371 18.2152 31.1019 18.7213 30.3789 19.0686C29.6559 19.4159 28.8639 19.5954 28.0618 19.5938H21.375V23.1563H28.0618C29.3975 23.1593 30.7165 22.8607 31.9206 22.2827C33.1247 21.7047 34.1828 20.8622 35.0158 19.8182C35.7077 18.954 36.6508 18.3259 37.715 18.0209C38.7792 17.7158 39.9118 17.7488 40.9564 18.1153C42.001 18.4817 42.9061 19.1636 43.5464 20.0666C44.1868 20.9696 44.5309 22.0492 44.5312 23.1563H48.0938C48.0909 20.795 47.1517 18.5313 45.482 16.8617C43.8124 15.1921 41.5487 14.2528 39.1875 14.25Z" fill="#15BA5C"/>
</svg>
