<svg width="24" height="24" viewBox="0 0 24 24" fill="none" xmlns="http://www.w3.org/2000/svg">
<path d="M19.0211 21.4653C19.4092 21.4653 19.7813 21.3112 20.0557 21.0368C20.3301 20.7624 20.4842 20.3902 20.4842 20.0022C20.4842 19.6142 20.3301 19.242 20.0557 18.9676C19.7813 18.6932 19.4092 18.5391 19.0211 18.5391C18.6331 18.5391 18.2609 18.6932 17.9865 18.9676C17.7121 19.242 17.558 19.6142 17.558 20.0022C17.558 20.3902 17.7121 20.7624 17.9865 21.0368C18.2609 21.3112 18.6331 21.4653 19.0211 21.4653ZM9.26685 21.4653C9.6549 21.4653 10.0271 21.3112 10.3014 21.0368C10.5758 20.7624 10.73 20.3902 10.73 20.0022C10.73 19.6142 10.5758 19.242 10.3014 18.9676C10.0271 18.6932 9.6549 18.5391 9.26685 18.5391C8.8788 18.5391 8.50665 18.6932 8.23225 18.9676C7.95786 19.242 7.80371 19.6142 7.80371 20.0022C7.80371 20.3902 7.95786 20.7624 8.23225 21.0368C8.50665 21.3112 8.8788 21.4653 9.26685 21.4653Z" fill="#307B32" stroke="#307B32" stroke-width="1.46314" stroke-linecap="round" stroke-linejoin="round"/>
<path d="M4.87745 3.90398H21.4597L19.5088 14.6337M4.87745 3.90398L6.8283 14.6337H19.5088M4.87745 3.90398C4.71455 3.25337 3.90202 1.95312 1.95117 1.95312M19.5088 14.6337H5.1018C3.36164 14.6337 2.43888 15.3955 2.43888 16.5845C2.43888 17.7735 3.36164 18.5354 5.1018 18.5354H19.0211" stroke="#307B32" stroke-width="1.46314" stroke-linecap="round" stroke-linejoin="round"/>
</svg>
