<svg width="24" height="24" viewBox="0 0 24 24" fill="none" xmlns="http://www.w3.org/2000/svg">
<path fill-rule="evenodd" clip-rule="evenodd" d="M10.7297 1.95117C12.6152 1.95117 14.1437 3.47965 14.1437 5.36513C14.1437 7.18779 12.7154 8.67685 10.917 8.77406L10.7297 8.77913C8.84421 8.77913 7.31569 7.25066 7.31569 5.36513C7.31569 3.54252 8.74399 2.05341 10.5424 1.9562L10.7297 1.95117ZM3.90169 19.5088H12.4881C12.1391 18.9058 11.9013 18.245 11.786 17.558H5.85255V15.9973L5.85763 15.8079C5.95168 14.0537 7.34431 12.6808 9.02267 12.6808H12.4367L12.6154 12.686C12.7895 12.6962 12.9601 12.7212 13.126 12.7597C13.6192 12.1883 14.2179 11.7172 14.8894 11.3723C14.161 10.9628 13.3253 10.73 12.4367 10.73H9.02267L8.81161 10.7344C6.08126 10.8482 3.90169 13.161 3.90169 15.9973V19.5088ZM9.26656 5.36513C9.26656 4.55707 9.92163 3.90199 10.7297 3.90199C11.5378 3.90199 12.1928 4.55707 12.1928 5.36513C12.1928 6.17319 11.5378 6.82827 10.7297 6.82827C9.92163 6.82827 9.26656 6.17319 9.26656 5.36513ZM14.691 20.5282L17.5577 18.7773L20.4244 20.5282L19.645 17.2607L22.1961 15.0754L18.8477 14.807L17.5577 11.7054L16.2676 14.807L12.9192 15.0754L15.4704 17.2607L14.691 20.5282Z" fill="#0485FC"/>
</svg>
